<?xml version="1.0" encoding="UTF-8"?>
<svg width="1440px" height="1632px" viewBox="0 0 1440 1632" version="1.1" xmlns="http://www.w3.org/2000/svg" xmlns:xlink="http://www.w3.org/1999/xlink">
    <title>home-outro</title>
    <defs>
        <polygon id="path-1" points="770.5385 430.382958 334.499228 458.772876 0.150282295 380.77131 82.4446417 0 797.522707 154.547471"></polygon>
        <polygon id="path-3" points="9.09494702e-13 545.182816 184.836675 648.074389 475.731672 556.53947 647.925938 320.605925 580.495038 203.804134 628.709217 167.158454 399.360189 0.000246471471"></polygon>
        <polygon id="path-5" points="-0.000739414411 1433.49144 238.54898 600.559509 316.750721 604.52248 301.231878 407.932222 259.21238 416.323047 400.266955 0.280555161 799.399473 96.9206351 391.251423 1558.3073"></polygon>
    </defs>
    <g id="home-outro" stroke="none" stroke-width="1" fill="none" fill-rule="evenodd">
        <g id="Group-16" transform="translate(129.500000, 1215.500000)" fill="#A07DFF">
            <text id="10-Years-of-Activism" font-family="TimesNewRomanPSMT, Times New Roman" font-size="72" font-weight="normal" line-spacing="60">
                <tspan x="10" y="64">10 Years </tspan>
                <tspan x="10" y="124">of Activism, </tspan>
                <tspan x="10" y="184">Community, and </tspan>
                <tspan x="10" y="244">Collaboration</tspan>
            </text>
            <rect id="Rectangle" x="0" y="260" width="508" height="4"></rect>
        </g>
        <g id="Group" transform="translate(321.677293, -0.000246)">
            <mask id="mask-2" fill="white">
                <use xlink:href="#path-1"></use>
            </mask>
            <g id="Path-3"></g>
            <polygon id="Fill-2" fill="#A07DFF" mask="url(#mask-2)" transform="translate(74.887667, 206.993642) rotate(-270.000000) translate(-74.887667, -206.993642) " points="-101.502106 143.033063 194.59886 207.029381 208.637875 142.06443 262.775334 153.764431 237.238425 271.922854 -113 196.226536"></polygon>
            <polygon id="Fill-3" fill="#A07DFF" mask="url(#mask-2)" transform="translate(240.109571, 236.093297) rotate(-270.000000) translate(-240.109571, -236.093297) " points="77.7575807 137.756109 128.597251 148.743807 113.946987 216.530856 205.740357 236.369345 217.238251 183.175872 270.439118 194.673766 258.943688 247.867239 360.152268 269.741582 375.413782 199.12997 428.607255 210.625399 401.847847 334.430484 51.6118871 258.734166"></polygon>
            <path d="M411.840293,277.387127 L417.844338,249.612257 L285.331417,235.758095 L411.840293,277.387127 Z M471.313859,255.256453 L462.867282,294.329576 L527.349148,315.166274 L517.073753,362.710621 L176.097726,244.177561 L189.730063,181.098117 L549.83474,211.128201 L538.745989,262.441097 L471.313859,255.256453 Z" id="Fill-4" fill="#A07DFF" mask="url(#mask-2)" transform="translate(362.966233, 271.904369) rotate(-270.000000) translate(-362.966233, -271.904369) "></path>
            <polygon id="Fill-5" fill="#A07DFF" mask="url(#mask-2)" transform="translate(544.204346, 291.947182) rotate(-270.000000) translate(-544.204346, -291.947182) " points="357.334606 352.722118 369.034607 298.584659 615.244818 326.670083 379.514574 250.096327 390.398754 199.729882 731.074086 319.672758 717.13366 384.164483"></polygon>
            <polygon id="Fill-6" fill="#A07DFF" mask="url(#mask-2)" transform="translate(668.483888, 328.676607) rotate(-270.000000) translate(-668.483888, -328.676607) " points="506.131898 230.33942 556.971568 241.327118 542.321304 309.111702 634.114674 328.952656 645.612568 275.759183 698.813435 287.257077 687.315541 340.45055 788.526586 362.324893 803.788099 291.713281 856.981572 303.20871 830.222164 427.013795 479.986205 351.317477"></polygon>
        </g>
        <g id="Group-6" transform="translate(785.193964, 581.237879) rotate(-310.000000) translate(-785.193964, -581.237879) translate(461.193964, 256.737879)">
            <mask id="mask-4" fill="white">
                <use xlink:href="#path-3"></use>
            </mask>
            <g id="Path-2"></g>
            <polygon id="Fill-2" fill="#A07DFF" mask="url(#mask-4)" points="116.634736 413.253539 318.428324 530.596142 145.947588 373.231502 176.110767 332.043654 438.164164 580.67668 403.729635 627.691113 222.112202 522.738631 376.696644 664.60268 341.125881 713.174813 25.5733869 537.588537 58.0164266 493.292685 259.423054 610.356774 86.7550001 454.051962"></polygon>
            <polygon id="Fill-3" fill="#A07DFF" mask="url(#mask-4)" points="503.0463 492.084728 470.889167 535.991156 181.802779 324.272162 213.959912 280.365735"></polygon>
            <polygon id="Fill-4" fill="#A07DFF" mask="url(#mask-4)" points="307.866775 152.142895 349.828543 182.875423 322.798016 219.786991 569.917707 400.773456 538.046481 444.292924 290.924326 263.306458 263.88887 300.218026 221.927102 269.485498"></polygon>
            <polygon id="Fill-5" fill="#A07DFF" mask="url(#mask-4)" points="637.077239 309.077196 604.920107 352.981159 315.833719 141.262166 347.990851 97.3582027 463.783148 182.161642 485.696927 152.240005 369.90463 67.4341015 402.059298 23.5301384 691.145686 235.249132 658.991018 279.15556 531.93251 186.100256 510.016267 216.021892"></polygon>
        </g>
        <g id="Group-21" transform="translate(715.766164, 1097.692523) rotate(-613.000000) translate(-715.766164, -1097.692523) translate(315.766164, 318.192523)">
            <mask id="mask-6" fill="white">
                <use xlink:href="#path-5"></use>
            </mask>
            <g id="Path-4"></g>
            <path d="M237.693143,1390.98768 L252.40749,1339.59592 L332.042422,1362.39946 C369.092013,1373.00759 403.142047,1395.78155 388.691425,1446.24905 L385.376383,1457.82582 C370.262753,1510.60768 328.981246,1511.31013 294.258345,1501.36747 L84.0576163,1441.17913 C48.8664197,1431.10091 19.4377261,1406.14321 32.9616157,1358.91928 L36.4072868,1346.87915 C52.8469339,1289.47101 92.6668648,1293.85821 126.470427,1303.53714 L188.051324,1321.16971 L173.336977,1372.55901 L112.682813,1355.1951 C97.8649481,1350.95086 88.6715622,1353.32931 84.9597019,1366.29124 C81.2453768,1379.25811 87.7251118,1384.6164 103.006343,1388.99126 L307.651605,1447.58986 C322.930372,1451.96472 332.722683,1449.26093 336.03526,1437.6817 C339.61649,1425.18313 331.680109,1417.8999 317.796371,1413.92432 L237.693143,1390.98768 Z" id="Fill-2" fill="#A07DFF" mask="url(#mask-6)"></path>
            <path d="M161.198011,1199.76057 C143.141511,1194.59207 133.085475,1198.22506 129.634874,1210.26519 C125.792384,1223.69049 133.127375,1231.30153 150.722973,1236.34187 L348.8885,1293.08207 C363.70883,1297.32631 376.471123,1296.47105 380.712897,1281.65565 C384.690946,1267.76452 374.181403,1260.74747 359.361073,1256.50324 L161.198011,1199.76057 Z M370.905797,1202.19571 C419.061393,1215.98579 447.287306,1241.6065 432.836683,1292.07153 L430.317745,1300.8681 C416.000217,1350.8747 378.09537,1359.05755 329.939774,1345.26747 L138.251517,1290.3832 C90.5642166,1276.72868 64.245993,1249.65133 78.2997963,1200.57147 L80.8187347,1191.77736 C95.4024516,1140.8465 131.53024,1133.65693 178.759103,1147.17835 L370.905797,1202.19571 Z" id="Fill-4" fill="#A07DFF" mask="url(#mask-6)"></path>
            <polygon id="Fill-6" fill="#A07DFF" mask="url(#mask-6)" points="108.454595 1107.51665 127.67937 1040.38276 316.801859 1067.47983 142.129992 989.910327 160.026285 927.405162 504.504672 1026.04304 490.453333 1075.12044 267.746642 1011.35335 481.437407 1106.60717 475.472797 1127.44141 243.619549 1095.61948 466.323776 1159.38904 452.935446 1206.15454"></polygon>
            <polygon id="Fill-8" fill="#A07DFF" mask="url(#mask-6)" points="165.595555 907.954373 184.820329 840.820474 373.945283 867.917548 199.270952 790.348046 217.16971 727.845346 561.648096 826.480764 547.594293 875.560628 324.887602 811.791064 538.580831 907.047358 532.613757 927.881592 300.760509 896.05966 523.467201 959.829224 510.076406 1006.59472"></polygon>
            <path d="M222.474023,709.318578 L237.720748,656.075811 L510.429107,734.162903 C525.249436,738.407141 536.429382,736.095239 539.744423,724.518474 C543.325654,712.017441 535.386808,704.739139 520.108041,700.36427 L247.394753,622.277179 L262.643943,569.029482 L532.111202,646.187376 C580.727699,660.108085 605.717442,688.306886 592.459741,734.606551 L589.810173,743.86402 C576.552473,790.163686 541.484512,800.66337 491.941282,786.476472 L222.474023,709.318578 Z" id="Fill-10" fill="#A07DFF" mask="url(#mask-6)"></path>
            <polygon id="Fill-12" fill="#A07DFF" mask="url(#mask-6)" points="281.468448 503.282478 479.069555 511.268153 294.329329 458.370446 307.983849 410.683146 652.462235 509.318564 640.266827 551.916228 427.783772 545.177698 625.949299 601.92036 612.425409 649.146759 267.947023 550.511341"></polygon>
            <polygon id="Fill-14" fill="#A07DFF" mask="url(#mask-6)" points="673.013766 437.553712 658.03323 489.872212 313.552379 391.234329 328.532915 338.91583"></polygon>
            <polygon id="Fill-16" fill="#A07DFF" mask="url(#mask-6)" points="372.285051 186.119046 422.286719 200.436573 409.692026 244.426801 704.168746 328.744692 689.321304 380.599824 394.844585 296.279469 382.249893 340.267233 332.245761 325.94724"></polygon>
            <polygon id="Fill-18" fill="#A07DFF" mask="url(#mask-6)" points="603.655215 139.152182 746.726974 180.120669 731.743974 232.441633 588.211313 191.342516 373.741698 181.027684 388.325415 130.101749 523.936483 142.881295 401.846839 82.8728859 415.368264 35.6440227"></polygon>
        </g>
        <g id="Group-3" transform="translate(1065.099632, 912.506289) rotate(-336.000000) translate(-1065.099632, -912.506289) translate(975.099632, 725.506289)" fill="#A07DFF">
            <path d="M63.9772158,242.963812 L91.8383509,237.373839 L51.6191363,110.354767 L63.9772158,242.963812 Z M108.016738,288.652229 L68.822845,296.514668 L75.4726452,363.951728 L27.7779509,373.51975 L0.274199501,13.5752789 L63.5532849,0.879533434 L179.831131,343.018906 L128.362958,353.341131 L108.016738,288.652229 Z" id="Fill-2"></path>
        </g>
    </g>
</svg>