<?xml version="1.0" encoding="UTF-8"?>
<svg width="1484px" height="1829px" viewBox="0 0 1484 1829" version="1.1" xmlns="http://www.w3.org/2000/svg" xmlns:xlink="http://www.w3.org/1999/xlink">
    <title>ill-howto-community</title>
    <g id="ill-howto-community" stroke="none" stroke-width="1" fill="none" fill-rule="evenodd">
        <g id="Group-5" transform="translate(742.000000, 914.500000) rotate(-270.000000) translate(-742.000000, -914.500000) translate(-101.000000, 71.000000)">
            <g id="Group-7" transform="translate(0.000000, 453.800000)">
                <polygon id="Fill-1" fill="#FEFEFE" points="154.547225 0.000246471471 -0.000246471471 715.078066 380.771064 797.372425 535.318535 82.3044647 535.318535 82.2946059"></polygon>
                <polygon id="Fill-2" fill="#A07DFF" points="30.6036231 648.674462 326.704589 712.670779 340.743604 647.705829 394.881063 659.405829 369.344154 777.564252 19.105729 701.867934"></polygon>
                <polygon id="Fill-3" fill="#A07DFF" points="73.7410599 449.075949 124.58073 460.063647 109.930466 527.850696 201.723836 547.689185 213.22173 494.495712 266.422597 505.993606 254.927168 559.187079 356.135748 581.061422 371.397261 510.44981 424.590734 521.94524 397.831326 645.750324 47.5953663 570.054006"></polygon>
                <path d="M320.778183,430.039232 L326.782228,402.264362 L194.269306,388.410201 L320.778183,430.039232 Z M380.251749,407.908559 L371.805171,446.981681 L436.287038,467.818379 L426.011642,515.362726 L85.0356151,396.829666 L98.6679521,333.750223 L458.77263,363.780307 L447.683878,415.093202 L380.251749,407.908559 Z" id="Fill-4" fill="#A07DFF"></path>
                <polygon id="Fill-5" fill="#A07DFF" points="105.077196 304.093297 116.777197 249.955838 362.987408 278.041262 127.257164 201.467506 138.141344 151.10106 478.816676 271.043937 464.876249 335.535662"></polygon>
                <polygon id="Fill-6" fill="#A07DFF" points="166.324371 20.7016318 217.164041 31.6893299 202.513777 99.4739138 294.307147 119.314867 305.805041 66.1213944 359.005908 77.6192885 347.508014 130.812761 448.719059 152.687104 463.980572 82.0754927 517.174045 93.5709221 490.414637 217.376007 140.178677 141.679688"></polygon>
            </g>
            <g id="Group-6" transform="translate(634.800000, 790.300000) rotate(-40.000000) translate(-634.800000, -790.300000) translate(277.800000, 421.800000)">
                <polygon id="Fill-1" fill="#FEFEFE" points="0 545.182816 343.613272 736.020747 713.788774 230.315512 399.360189 0.000246471471"></polygon>
                <polygon id="Fill-2" fill="#A07DFF" points="116.634736 413.253539 318.428324 530.596142 145.947588 373.231502 176.110767 332.043654 438.164164 580.67668 403.729635 627.691113 222.112202 522.738631 376.696644 664.60268 341.125881 713.174813 25.5733869 537.588537 58.0164266 493.292685 259.423054 610.356774 86.7550001 454.051962"></polygon>
                <polygon id="Fill-3" fill="#A07DFF" points="503.0463 492.084728 470.889167 535.991156 181.802779 324.272162 213.959912 280.365735"></polygon>
                <polygon id="Fill-4" fill="#A07DFF" points="307.866775 152.142895 349.828543 182.875423 322.798016 219.786991 569.917707 400.773456 538.046481 444.292924 290.924326 263.306458 263.88887 300.218026 221.927102 269.485498"></polygon>
                <polygon id="Fill-5" fill="#A07DFF" points="637.077239 309.077196 604.920107 352.981159 315.833719 141.262166 347.990851 97.3582027 463.783148 182.161642 485.696927 152.240005 369.90463 67.4341015 402.059298 23.5301384 691.145686 235.249132 658.991018 279.15556 531.93251 186.100256 510.016267 216.021892"></polygon>
            </g>
            <g id="Group-21" transform="translate(1088.900000, 843.500000) rotate(-343.000000) translate(-1088.900000, -843.500000) translate(698.400000, 81.000000)">
                <polygon id="Fill-1" fill="#FEFEFE" points="405.87862 -0.000492942942 -0.000739414412 1417.49144 374.510196 1524.72625 780.39202 107.244173 780.39202 107.234315"></polygon>
                <g id="Group-20" transform="translate(29.576576, 18.786056)" fill="#A07DFF">
                    <path d="M208.116566,1356.20163 L222.830913,1304.80986 L302.465845,1327.6134 C339.515437,1338.22153 373.565471,1360.9955 359.114848,1411.463 L355.799807,1423.03976 C340.686176,1475.82163 299.40467,1476.52407 264.681769,1466.58141 L54.4810398,1406.39308 C19.2898432,1396.31486 -10.1388504,1371.35716 3.38503918,1324.13322 L6.83071034,1312.09309 C23.2703574,1254.68496 63.0902883,1259.07215 96.8938505,1268.75108 L158.474747,1286.38365 L143.760401,1337.77296 L83.1062364,1320.40904 C68.2883716,1316.1648 59.0949857,1318.54325 55.3831254,1331.50519 C51.6688003,1344.47205 58.1485353,1349.83034 73.4297665,1354.20521 L278.075029,1412.8038 C293.353795,1417.17867 303.146107,1414.47488 306.458683,1402.89565 C310.039914,1390.39708 302.103532,1383.11385 288.219794,1379.13826 L208.116566,1356.20163 Z" id="Fill-2"></path>
                    <path d="M131.621434,1164.97452 C113.564934,1159.80601 103.508898,1163.439 100.058298,1175.47913 C96.2158075,1188.90443 103.550798,1196.51547 121.146397,1201.55581 L319.311924,1258.29601 C334.132253,1262.54025 346.894546,1261.68499 351.13632,1246.86959 C355.11437,1232.97846 344.604826,1225.96142 329.784497,1221.71718 L131.621434,1164.97452 Z M341.32922,1167.40966 C389.484816,1181.19974 417.710729,1206.82044 403.260107,1257.28548 L400.741168,1266.08205 C386.423641,1316.08864 348.518793,1324.27149 300.363197,1310.48142 L108.67494,1255.59715 C60.9876401,1241.94263 34.6694165,1214.86527 48.7232198,1165.78541 L51.2421582,1156.99131 C65.8258751,1106.06044 101.953663,1098.87087 149.182527,1112.39229 L341.32922,1167.40966 Z" id="Fill-4"></path>
                    <polygon id="Fill-6" points="78.8780183 1072.7306 98.102793 1005.5967 287.225282 1032.69377 112.553415 955.124272 130.449709 892.619107 474.928095 991.256989 460.876757 1040.33439 238.170065 976.56729 451.86083 1071.82112 445.896221 1092.65535 214.042973 1060.83342 436.7472 1124.60298 423.358869 1171.36848"></polygon>
                    <polygon id="Fill-8" points="136.018978 873.168318 155.243753 806.034419 344.368707 833.131492 169.694375 755.561991 187.593133 693.05929 532.07152 791.694708 518.017717 840.774572 295.311025 777.005009 509.004255 872.261303 503.037181 893.095536 271.183933 861.273605 493.890624 925.043168 480.499829 971.808665"></polygon>
                    <path d="M192.897446,674.532523 L208.144171,621.289756 L480.85253,699.376847 C495.67286,703.621086 506.852805,701.309184 510.167847,689.732419 C513.749077,677.231386 505.810231,669.953083 490.531465,665.578214 L217.818176,587.491123 L233.067366,534.243427 L502.534625,611.40132 C551.151123,625.322029 576.140865,653.52083 562.883165,699.820496 L560.233597,709.077964 C546.975896,755.37763 511.907935,765.877315 462.364705,751.690417 L192.897446,674.532523 Z" id="Fill-10"></path>
                    <polygon id="Fill-12" points="251.891871 468.496422 449.492979 476.482098 264.752753 423.584391 278.407272 375.897091 622.885659 474.532509 610.69025 517.130173 398.207195 510.391643 596.372723 567.134305 582.848833 614.360703 238.370446 515.725285"></polygon>
                    <polygon id="Fill-14" points="643.437189 402.767657 628.456653 455.086156 283.975802 356.448273 298.956338 304.129774"></polygon>
                    <polygon id="Fill-16" points="342.708475 151.33299 392.710142 165.650518 380.11545 209.640746 674.592169 293.958636 659.744728 345.813769 365.268009 261.493414 352.673316 305.481177 302.669184 291.161185"></polygon>
                    <polygon id="Fill-18" points="574.078639 104.366126 717.150398 145.334614 702.167397 197.655578 558.634736 156.55646 344.165121 146.241629 358.748838 95.3156937 494.359906 108.095239 372.270263 48.0868304 385.791688 0.85796719"></polygon>
                </g>
            </g>
            <g id="Group-3" transform="translate(915.553590, 495.973205) rotate(-66.000000) translate(-915.553590, -495.973205) translate(805.553590, 289.973205)">
                <polygon id="Fill-1" fill="#FEFEFE" points="93.5879286 0.000492942942 0.000246471471 19.1784381 26.7177539 411.309619 219.951387 371.948125 93.6002522 0.000492942942"></polygon>
                <path d="M80.9772158,259.963812 L108.838351,254.373839 L68.6191363,127.354767 L80.9772158,259.963812 Z M125.016738,305.652229 L85.822845,313.514668 L92.4726452,380.951728 L44.7779509,390.51975 L17.2741995,30.5752789 L80.5532849,17.8795334 L196.831131,360.018906 L145.362958,370.341131 L125.016738,305.652229 Z" id="Fill-2" fill="#A07DFF"></path>
            </g>
        </g>
    </g>
</svg>