<?xml version="1.0" encoding="UTF-8"?>
<svg width="540px" height="523px" viewBox="0 0 540 523" version="1.1" xmlns="http://www.w3.org/2000/svg" xmlns:xlink="http://www.w3.org/1999/xlink">
    <title>title-what-is-your-favorite-mozfest-memory</title>
    <g id="what-is-your-favorite-mozfest-memory" stroke="none" stroke-width="1" fill="none" fill-rule="evenodd">
        <polygon id="Path" fill="#202020" fill-rule="nonzero" transform="translate(223.199415, 67.688021) rotate(-3.000000) translate(-223.199415, -67.688021) " points="217.799415 119.788021 201.999415 119.788021 201.999415 15.5880212 217.799415 15.5880212 217.799415 57.2880212 228.599415 57.2880212 228.599415 15.5880212 244.399415 15.5880212 244.399415 119.788021 228.599415 119.788021 228.599415 73.9880212 217.799415 73.9880212"></polygon>
        <path d="M274.541196,97.7647294 L262.941196,97.7647294 L260.941196,117.364729 L246.841196,117.364729 L259.641196,13.2647294 L278.441196,13.2647294 L292.041196,117.464729 L276.741196,117.464729 L274.541196,97.7647294 Z M264.641196,82.2647294 L272.941196,82.2647294 L268.741196,43.7647294 L264.641196,82.2647294 Z" id="Shape" fill="#202020" fill-rule="nonzero" transform="translate(269.441196, 65.364729) rotate(-3.000000) translate(-269.441196, -65.364729) "></path>
        <polygon id="Path" fill="#202020" fill-rule="nonzero" transform="translate(307.036981, 63.344349) rotate(-3.000000) translate(-307.036981, -63.344349) " points="328.186981 11.2943491 328.186981 26.3943491 314.886981 26.3943491 314.886981 115.394349 299.186981 115.394349 299.186981 26.3943491 285.886981 26.3943491 285.886981 11.2943491"></polygon>
        <polygon id="Path" fill="#202020" fill-rule="nonzero" transform="translate(354.219610, 60.821544) rotate(-3.000000) translate(-354.219610, -60.821544) " points="362.11961 112.921544 346.31961 112.921544 346.31961 8.72154372 362.11961 8.72154372"></polygon>
        <path d="M389.883618,6.04708071 C402.883618,6.04708071 407.983618,11.7470807 407.983618,24.1470807 L407.983618,41.2470807 L392.683618,41.2470807 L392.683618,26.2470807 C392.683618,22.7470807 391.983618,20.0470807 388.183618,20.0470807 C384.383618,20.0470807 383.583618,22.4470807 383.583618,27.3470807 L383.583618,29.3470807 C383.583618,35.2470807 384.683618,38.4470807 389.983618,45.3470807 L400.083618,58.3470807 C407.183618,67.5470807 409.483618,72.9470807 409.483618,84.6470807 L409.483618,88.0470807 C409.483618,103.347081 402.883618,112.447081 389.083618,112.447081 L385.983618,112.447081 C373.383618,112.447081 366.683618,105.547081 366.683618,92.7470807 L366.683618,71.8470807 L382.383618,71.8470807 L382.383618,90.0470807 C382.383618,94.8470807 383.883618,97.3470807 387.583618,97.3470807 C391.383618,97.3470807 392.783618,94.8470807 392.783618,88.3470807 L392.783618,85.9470807 C392.783618,78.5470807 392.083618,75.8470807 386.383618,68.4470807 L376.283618,55.5470807 C369.583618,46.8470807 367.583618,40.1470807 367.583618,29.7470807 L367.583618,26.3470807 C367.583618,12.4470807 374.583618,6.04708071 387.083618,6.04708071 L389.883618,6.04708071 Z" id="Path" fill="#202020" fill-rule="nonzero" transform="translate(388.083618, 59.247081) rotate(-3.000000) translate(-388.083618, -59.247081) "></path>
        <polygon id="Path" fill="#202020" fill-rule="nonzero" transform="translate(33.664429, 170.855395) rotate(4.000000) translate(-33.664429, -170.855395) " points="41.7644292 179.655395 41.7644292 222.955395 25.9644292 222.955395 25.9644292 179.555395 11.6644292 118.755395 27.0644292 118.755395 34.3644292 157.655395 41.3644292 118.755395 55.6644292 118.755395"></polygon>
        <path d="M98.7513679,202.693046 C98.7513679,217.293046 93.8513679,227.193046 78.5513679,227.193046 L75.8513679,227.193046 C60.7513679,227.193046 55.4513679,217.293046 55.4513679,202.693046 L55.4513679,144.693046 C55.4513679,130.293046 60.9513679,120.793046 75.7513679,120.793046 L78.4513679,120.793046 C93.8513679,120.793046 98.7513679,130.293046 98.7513679,144.593046 L98.7513679,202.693046 Z M82.6513679,143.893046 C82.6513679,138.393046 80.8513679,135.893046 77.1513679,135.893046 C73.0513679,135.893046 71.5513679,138.593046 71.5513679,143.893046 L71.5513679,203.793046 C71.5513679,208.293046 72.8513679,211.793046 77.2513679,211.793046 C81.4513679,211.793046 82.5513679,208.293046 82.5513679,203.793046 L82.6513679,143.893046 Z" id="Shape" fill="#202020" fill-rule="nonzero" transform="translate(77.101368, 173.993046) rotate(4.000000) translate(-77.101368, -173.993046) "></path>
        <path d="M103.799442,125.143627 L119.899442,125.143627 L119.899442,207.643627 C119.899442,212.143627 121.399442,215.043627 124.899442,215.043627 C128.699442,215.043627 130.099442,212.243627 130.099442,207.643627 L130.099442,125.143627 L146.199442,125.143627 L146.199442,206.643627 C146.199442,221.343627 140.299442,230.543627 126.299442,230.543627 L123.499442,230.543627 C109.499442,230.543627 103.799442,221.543627 103.799442,206.643627 L103.799442,125.143627 Z" id="Path" fill="#202020" fill-rule="nonzero" transform="translate(124.999442, 177.843627) rotate(4.000000) translate(-124.999442, -177.843627) "></path>
        <path d="M167.530737,232.611082 L151.730737,232.611082 L151.730737,128.411082 L177.330737,128.411082 C187.830737,128.411082 193.130737,132.911082 193.130737,144.511082 L193.130737,163.011082 C193.130737,171.711082 189.030737,175.011082 186.230737,176.311082 C189.730737,177.811082 193.130737,180.611082 193.130737,187.611082 L193.130737,224.111082 C193.130737,228.311082 193.930737,230.311082 194.630737,231.811082 L194.630737,232.511082 L178.930737,232.511082 C178.230737,231.411082 177.430737,229.611082 177.430737,224.011082 L177.430737,192.611082 C177.430737,188.011082 176.630737,186.011082 171.530737,186.011082 L167.430737,186.011082 L167.530737,232.611082 Z M167.530737,171.311082 L171.730737,171.311082 C176.030737,171.311082 177.430737,168.511082 177.430737,163.911082 L177.430737,149.311082 C177.430737,144.811082 176.430737,142.611082 171.730737,142.611082 L167.530737,142.611082 L167.530737,171.311082 Z" id="Shape" fill="#202020" fill-rule="nonzero" transform="translate(173.180737, 180.511082) rotate(4.000000) translate(-173.180737, -180.511082) "></path>
        <polygon id="Path" fill="#202020" fill-rule="nonzero" transform="translate(230.786573, 184.589396) rotate(4.000000) translate(-230.786573, -184.589396) " points="212.786573 132.539396 248.786573 132.539396 248.786573 147.639396 228.586573 147.639396 228.586573 175.039396 244.586573 175.039396 244.586573 190.839396 228.586573 190.839396 228.586573 236.639396 212.786573 236.639396"></polygon>
        <path d="M271.496244,219.526093 L259.896244,219.526093 L257.896244,239.126093 L243.796244,239.126093 L256.496244,135.026093 L275.296244,135.026093 L288.896244,239.226093 L273.596244,239.226093 L271.496244,219.526093 Z M261.496244,204.026093 L269.796244,204.026093 L265.596244,165.526093 L261.496244,204.026093 Z" id="Shape" fill="#202020" fill-rule="nonzero" transform="translate(266.346244, 187.126093) rotate(4.000000) translate(-266.346244, -187.126093) "></path>
        <polygon id="Path" fill="#202020" fill-rule="nonzero" transform="translate(306.747588, 189.951230) rotate(4.000000) translate(-306.747588, -189.951230) " points="283.997588 137.85123 300.097588 137.85123 307.197588 209.55123 314.497588 137.85123 329.497588 137.85123 316.297588 242.05123 297.097588 242.05123"></polygon>
        <path d="M374.278559,221.959784 C374.278559,236.559784 369.378559,246.459784 354.078559,246.459784 L351.378559,246.459784 C336.278559,246.459784 330.978559,236.559784 330.978559,221.959784 L330.978559,163.959784 C330.978559,149.559784 336.478559,140.059784 351.278559,140.059784 L353.978559,140.059784 C369.378559,140.059784 374.278559,149.559784 374.278559,163.859784 L374.278559,221.959784 Z M358.178559,163.159784 C358.178559,157.659784 356.378559,155.159784 352.678559,155.159784 C348.578559,155.159784 347.078559,157.859784 347.078559,163.159784 L347.078559,223.059784 C347.078559,227.559784 348.378559,231.059784 352.778559,231.059784 C356.978559,231.059784 358.078559,227.559784 358.078559,223.059784 L358.178559,163.159784 Z" id="Shape" fill="#202020" fill-rule="nonzero" transform="translate(352.628559, 193.259784) rotate(4.000000) translate(-352.628559, -193.259784) "></path>
        <path d="M395.474123,248.550436 L379.674123,248.550436 L379.674123,144.350436 L405.274123,144.350436 C415.774123,144.350436 421.074123,148.850436 421.074123,160.450436 L421.074123,178.950436 C421.074123,187.650436 416.974123,190.950436 414.174123,192.250436 C417.674123,193.750436 421.074123,196.550436 421.074123,203.550436 L421.074123,240.050436 C421.074123,244.250436 421.874123,246.250436 422.574123,247.750436 L422.574123,248.450436 L406.874123,248.450436 C406.174123,247.350436 405.374123,245.550436 405.374123,239.950436 L405.374123,208.550436 C405.374123,203.950436 404.574123,201.950436 399.474123,201.950436 L395.374123,201.950436 L395.474123,248.550436 Z M395.474123,187.250436 L399.674123,187.250436 C403.974123,187.250436 405.374123,184.450436 405.374123,179.850436 L405.374123,165.250436 C405.374123,160.750436 404.374123,158.550436 399.674123,158.550436 L395.474123,158.550436 L395.474123,187.250436 Z" id="Shape" fill="#202020" fill-rule="nonzero" transform="translate(401.124123, 196.450436) rotate(4.000000) translate(-401.124123, -196.450436) "></path>
        <polygon id="Path" fill="#202020" fill-rule="nonzero" transform="translate(467.259131, 201.125168) rotate(4.000000) translate(-467.259131, -201.125168) " points="488.409131 149.075168 488.409131 164.175168 475.109131 164.175168 475.109131 253.175168 459.409131 253.175168 459.409131 164.175168 446.109131 164.175168 446.109131 149.075168"></polygon>
        <polygon id="Path" fill="#202020" fill-rule="nonzero" transform="translate(510.606777, 204.106209) rotate(4.000000) translate(-510.606777, -204.106209) " points="528.206777 152.106209 528.206777 167.206209 508.006777 167.206209 508.006777 194.506209 523.806777 194.506209 523.806777 210.306209 508.006777 210.306209 508.006777 240.406209 529.006777 240.406209 529.006777 256.206209 492.206777 256.206209 492.206777 152.006209"></polygon>
        <polygon id="Path" fill="#202020" fill-rule="nonzero" points="114.526089 258.29857 134.826089 258.29857 142.426089 313.29857 150.126089 258.29857 169.026089 258.29857 169.026089 362.49857 154.126089 362.49857 154.126089 295.09857 144.626089 362.39857 138.326089 362.39857 128.626089 295.09857 128.626089 362.39857 114.526089 362.39857"></polygon>
        <path d="M217.726089,339.19857 C217.726089,353.79857 212.826089,363.69857 197.526089,363.69857 L194.826089,363.69857 C179.726089,363.69857 174.426089,353.79857 174.426089,339.19857 L174.426089,281.19857 C174.426089,266.79857 179.926089,257.29857 194.726089,257.29857 L197.426089,257.29857 C212.826089,257.29857 217.726089,266.79857 217.726089,281.09857 L217.726089,339.19857 Z M201.626089,280.39857 C201.626089,274.89857 199.826089,272.39857 196.126089,272.39857 C192.026089,272.39857 190.526089,275.09857 190.526089,280.39857 L190.526089,340.29857 C190.526089,344.79857 191.826089,348.29857 196.226089,348.29857 C200.426089,348.29857 201.526089,344.79857 201.526089,340.29857 L201.626089,280.39857 L201.626089,280.39857 Z" id="Shape" fill="#202020" fill-rule="nonzero"></path>
        <polygon id="Path" fill="#202020" fill-rule="nonzero" points="260.126089 258.29857 260.126089 271.99857 237.326089 347.19857 261.226089 347.19857 261.226089 362.49857 220.726089 362.49857 220.726089 348.29857 243.226089 273.09857 222.126089 273.09857 222.126089 258.29857"></polygon>
        <polygon id="Path" fill="#202020" fill-rule="nonzero" points="265.026089 258.29857 301.026089 258.29857 301.026089 273.39857 280.826089 273.39857 280.826089 300.79857 296.826089 300.79857 296.826089 316.69857 280.826089 316.69857 280.826089 362.49857 265.026089 362.49857"></polygon>
        <path d="M386.626089,347.99857 C387.226089,345.39857 387.526089,342.49857 387.526089,339.29857 L387.526089,335.89857 C387.526089,324.19857 385.226089,318.79857 378.126089,309.59857 L368.026089,296.59857 C362.726089,289.69857 361.626089,286.49857 361.626089,280.59857 L361.626089,278.59857 C361.626089,273.69857 362.426089,271.29857 366.226089,271.29857 C370.026089,271.29857 370.726089,273.99857 370.726089,277.49857 L370.726089,292.49857 L386.026089,292.49857 L386.026089,275.39857 C386.026089,262.99857 380.926089,257.29857 367.926089,257.29857 L367.926089,257.19857 L365.126089,257.19857 C352.626089,257.19857 345.626089,263.59857 345.626089,277.49857 L345.626089,280.89857 C345.626089,291.29857 347.626089,297.99857 354.326089,306.69857 L364.426089,319.59857 C370.126089,326.99857 370.826089,329.69857 370.826089,337.09857 L370.826089,339.49857 C370.826089,345.99857 369.426089,348.49857 365.626089,348.49857 C361.926089,348.49857 360.426089,345.99857 360.426089,341.19857 L360.426089,322.99857 L344.726089,322.99857 L344.726089,343.99857 C344.726089,348.39857 345.526089,351.99857 347.026089,354.99857 L386.626089,347.99857 Z" id="Path" fill="#202020" fill-rule="nonzero"></path>
        <polygon id="Path" fill="#202020" fill-rule="nonzero" transform="translate(139.912720, 454.601249) rotate(-10.000000) translate(-139.912720, -454.601249) " points="112.66272 402.501249 132.96272 402.501249 140.56272 457.501249 148.26272 402.501249 167.16272 402.501249 167.16272 506.701249 152.36272 506.701249 152.36272 439.301249 142.86272 506.601249 136.56272 506.601249 126.86272 439.301249 126.86272 506.601249 112.76272 506.601249"></polygon>
        <polygon id="Path" fill="#202020" fill-rule="nonzero" transform="translate(190.563714, 445.568570) rotate(-10.000000) translate(-190.563714, -445.568570) " points="208.163714 393.56857 208.163714 408.66857 187.963714 408.66857 187.963714 435.96857 203.763714 435.96857 203.763714 451.76857 187.963714 451.76857 187.963714 481.86857 208.963714 481.86857 208.963714 497.66857 172.163714 497.66857 172.163714 393.46857"></polygon>
        <polygon id="Path" fill="#202020" fill-rule="nonzero" transform="translate(239.575265, 437.028054) rotate(-10.000000) translate(-239.575265, -437.028054) " points="212.325265 384.928054 232.625265 384.928054 240.225265 439.928054 247.925265 384.928054 266.825265 384.928054 266.825265 489.128054 252.025265 489.128054 252.025265 421.728054 242.525265 489.028054 236.225265 489.028054 226.525265 421.728054 226.525265 489.028054 212.425265 489.028054"></polygon>
        <path d="M314.717691,456.397439 C314.717691,470.997439 309.817691,480.897439 294.517691,480.897439 L291.817691,480.897439 C276.717691,480.897439 271.417691,470.997439 271.417691,456.397439 L271.417691,398.397439 C271.417691,383.997439 276.917691,374.497439 291.717691,374.497439 L294.417691,374.497439 C309.817691,374.497439 314.717691,383.997439 314.717691,398.297439 L314.717691,456.397439 Z M298.617691,397.597439 C298.617691,392.097439 296.817691,389.597439 293.117691,389.597439 C289.017691,389.597439 287.517691,392.297439 287.517691,397.597439 L287.517691,457.497439 C287.517691,461.997439 288.817691,465.497439 293.217691,465.497439 C297.417691,465.497439 298.517691,461.997439 298.517691,457.497439 L298.617691,397.597439 Z" id="Shape" fill="#202020" fill-rule="nonzero" transform="translate(293.067691, 427.697439) rotate(-10.000000) translate(-293.067691, -427.697439) "></path>
        <path d="M335.261983,471.259656 L319.461983,471.259656 L319.461983,367.059656 L345.061983,367.059656 C355.561983,367.059656 360.861983,371.559656 360.861983,383.159656 L360.861983,401.659656 C360.861983,410.359656 356.761983,413.659656 353.961983,414.959656 C357.461983,416.459656 360.861983,419.259656 360.861983,426.259656 L360.861983,462.759656 C360.861983,466.959656 361.661983,468.959656 362.361983,470.459656 L362.361983,471.159656 L346.661983,471.159656 C345.961983,470.059656 345.161983,468.259656 345.161983,462.659656 L345.161983,431.259656 C345.161983,426.659656 344.361983,424.659656 339.261983,424.659656 L335.161983,424.659656 L335.261983,471.259656 Z M335.261983,409.959656 L339.461983,409.959656 C343.761983,409.959656 345.161983,407.159656 345.161983,402.559656 L345.161983,387.959656 C345.161983,383.459656 344.161983,381.259656 339.461983,381.259656 L335.261983,381.259656 L335.261983,409.959656 Z" id="Shape" fill="#202020" fill-rule="nonzero" transform="translate(340.911983, 419.159656) rotate(-10.000000) translate(-340.911983, -419.159656) "></path>
        <polygon id="Path" fill="#202020" fill-rule="nonzero" transform="translate(383.110995, 411.718832) rotate(-10.000000) translate(-383.110995, -411.718832) " points="391.210995 420.518832 391.210995 463.818832 375.410995 463.818832 375.410995 420.418832 361.110995 359.618832 376.510995 359.618832 383.810995 398.518832 390.810995 359.618832 405.110995 359.618832"></polygon>
        <path d="M415.65929,435.126801 L415.65929,418.326801 C415.65929,409.526801 416.25929,406.826801 420.55929,399.526801 L424.65929,392.626801 C427.75929,387.626801 427.85929,384.826801 427.85929,379.026801 L427.85929,371.426801 C427.85929,367.526801 426.85929,365.926801 423.75929,365.926801 C420.65929,365.926801 419.95929,367.426801 419.95929,371.426801 L419.95929,388.226801 L404.85929,388.226801 L404.85929,371.426801 C404.85929,359.826801 407.75929,351.026801 422.25929,351.026801 L425.35929,351.026801 C439.75929,351.026801 443.95929,358.326801 443.95929,370.526801 L443.95929,380.926801 C443.95929,387.926801 442.45929,392.726801 437.65929,399.726801 L433.05929,406.126801 C428.85929,412.126801 428.45929,414.826801 428.45929,422.926801 L428.45929,435.126801 L415.65929,435.126801 Z M429.35929,456.526801 L414.75929,456.526801 L414.75929,438.626801 L429.35929,438.626801 L429.35929,456.526801 Z" id="Shape" fill="#202020" fill-rule="nonzero" transform="translate(424.409290, 403.776801) rotate(-10.000000) translate(-424.409290, -403.776801) "></path>
        <polygon id="Path" fill="#202020" fill-rule="nonzero" points="158.856333 118.350737 162.056333 62.4507365 171.256333 119.250737 188.756333 120.450737 196.456333 17.0507365 181.656333 17.8507365 177.956333 85.6507365 167.256333 18.5507365 152.656333 19.3507365 149.156333 86.9507365 138.556333 20.0507365 122.556333 20.9507365 139.756333 117.050737"></polygon>
        <polygon id="Path" fill="#202020" fill-rule="nonzero" points="438.756333 249.950737 445.956333 147.450737 430.156333 146.250737 422.856333 249.950737"></polygon>
        <polygon id="Path" fill="#202020" fill-rule="nonzero" points="341.856333 355.950737 341.856333 346.750737 320.856333 346.750737 320.856333 316.550737 336.656333 316.550737 336.656333 300.750737 320.856333 300.750737 320.856333 273.450737 341.056333 273.450737 341.056333 258.350737 305.056333 258.350737 305.056333 362.450737"></polygon>
        <polygon id="Path" fill="#202020" fill-rule="nonzero" points="402.356333 345.250737 418.056333 342.450737 418.056333 273.450737 431.356333 273.450737 431.356333 258.350737 389.056333 258.350737 389.056333 273.450737 402.356333 273.450737"></polygon>
    </g>
</svg>