<?xml version="1.0" encoding="UTF-8"?>
<svg width="24px" height="24px" viewBox="0 0 24 24" version="1.1" xmlns="http://www.w3.org/2000/svg" xmlns:xlink="http://www.w3.org/1999/xlink">
    <title>icon-m-logo-box</title>
    <g id="icon-m-logo-box" stroke="none" stroke-width="1" fill="none" fill-rule="evenodd">
        <path d="M20.2784,16.5816 L16.5274,16.5816 L16.5274,11.4386 C16.5274,9.8596 16.0104,9.2526 14.9984,9.2526 C13.7674,9.2526 13.2714,10.1446 13.2714,11.4186 L13.2714,14.5976 L14.4634,14.5976 L14.4634,16.5816 L10.7114,16.5816 L10.7114,11.4386 C10.7114,9.8596 10.1954,9.2526 9.1824,9.2526 C7.9524,9.2526 7.4564,10.1446 7.4564,11.4186 L7.4564,14.5976 L9.1634,14.5976 L9.1634,16.5816 L3.7044,16.5816 L3.7044,14.5976 L4.8954,14.5976 L4.8954,9.4346 L3.7044,9.4346 L3.7044,7.4506 L7.4564,7.4506 L7.4564,8.8276 C7.9914,7.8556 8.9244,7.2686 10.1754,7.2686 C11.4654,7.2686 12.6564,7.8966 13.0934,9.2326 C13.5904,8.0176 14.6014,7.2686 16.0104,7.2686 C17.6184,7.2686 19.0884,8.2616 19.0884,10.4266 L19.0884,14.5976 L20.2784,14.5976 L20.2784,16.5816 Z M0.0004,23.9996 L24.0004,23.9996 L24.0004,-0.0004 L0.0004,-0.0004 L0.0004,23.9996 Z" id="Fill-1" fill="#000000"></path>
    </g>
</svg>