<?xml version="1.0" encoding="UTF-8"?>
<svg width="25px" height="25px" viewBox="0 0 25 25" version="1.1" xmlns="http://www.w3.org/2000/svg" xmlns:xlink="http://www.w3.org/1999/xlink">
    <title>icon-zilla-youtube</title>
    <g id="icon-zilla-youtube" stroke="none" stroke-width="1" fill="none" fill-rule="evenodd">
        <path d="M23.04,7.084 C23.5,8.84 23.5,12.5 23.5,12.5 C23.5,12.5 23.5,16.16 23.04,17.916 C22.7925746,18.8783099 22.0515352,19.6361132 21.095,19.905 C19.38,20.375 12.5,20.375 12.5,20.375 C12.5,20.375 5.62,20.375 3.905,19.905 C2.94820881,19.6359347 2.20711437,18.8776941 1.96,17.915 C1.5,16.162 1.5,12.5 1.5,12.5 C1.5,12.5 1.5,8.84 1.96,7.084 C2.20742536,6.12169008 2.9484648,5.36388677 3.905,5.095 C5.62,4.625 12.5,4.625 12.5,4.625 C12.5,4.625 19.38,4.625 21.095,5.095 C22.0517912,5.36406528 22.7928856,6.12230587 23.04,7.085 L23.04,7.084 Z M10.3,15.875 L16.015,12.5 L10.3,9.125 L10.3,15.875 Z" id="Shape" fill="#FFFFFF" fill-rule="nonzero"></path>
    </g>
</svg>