<?xml version="1.0" encoding="UTF-8"?>
<svg width="25px" height="25px" viewBox="0 0 25 25" version="1.1" xmlns="http://www.w3.org/2000/svg" xmlns:xlink="http://www.w3.org/1999/xlink">
    <title>icon-zilla-twitter</title>
    <g id="icon-zilla-twitter" stroke="none" stroke-width="1" fill="none" fill-rule="evenodd">
        <path d="M21.262,8.57 C21.262,8.372 21.262,8.176 21.248,7.981 C22.1325628,7.33676198 22.8951645,6.53995829 23.5,5.628 C22.6770414,5.99598665 21.803158,6.23738346 20.908,6.344 C21.8520974,5.77336915 22.5573284,4.8798397 22.893,3.829 C22.0076007,4.35845436 21.0378331,4.73188422 20.026,4.933 C19.2084458,4.0546281 18.0736841,3.53952256 16.8742887,3.50233492 C15.6748934,3.46514728 14.5104,3.90896367 13.64,4.735 C12.4664051,5.84973099 11.9696878,7.50190558 12.334,9.079 C8.6981144,8.89234019 5.31408262,7.16504365 3.03,4.33 C1.83265975,6.40643186 2.4438743,9.05517376 4.43,10.397 C3.71091611,10.3762484 3.00754657,10.1817067 2.38,9.83 L2.38,9.888 C2.37573238,12.0445271 3.88911184,13.9064729 6.001,14.343 C5.33712622,14.5259043 4.63991672,14.5526016 3.964,14.421 C4.54821864,16.2676277 6.24359191,17.537147 8.18,17.578 C6.29400117,19.0723318 3.88886818,19.7506657 1.5,19.462 C3.56130571,20.7948637 5.96431064,21.5026718 8.419,21.5000075 C16.721,21.503 21.262,14.576 21.262,8.57 L21.262,8.57 Z" id="Path" fill="#FFFFFF"></path>
    </g>
</svg>