<?xml version="1.0" encoding="UTF-8"?>
<svg width="44px" height="36px" viewBox="0 0 44 36" version="1.1" xmlns="http://www.w3.org/2000/svg" xmlns:xlink="http://www.w3.org/1999/xlink">
  <title>icon-hand</title>
  <g id="icon-hand" stroke="none" stroke-width="1" fill="none" fill-rule="evenodd">
    <path d="M26.9998667,33.0001223 L26.9998667,35 L12.9996002,35 L12.9996002,33.0001223 L26.9998667,33.0001223 Z M28.9997335,31.0002446 L28.9997335,33.0001223 L26.9998667,33.0001223 L26.9998667,31.0002446 L28.9997335,31.0002446 Z M12.9998801,31.0000447 L12.9998801,32.9999224 L6.99988006,32.9999224 L6.99988006,31.0000447 L12.9998801,31.0000447 Z M7,10.9997883 L7,13.0000659 L3.00026654,13.0000659 L3.00026654,29.0002869 L7,29.0002869 L7,31.0001646 L1,31.0001646 L1,10.9997883 L7,10.9997883 Z M31.0001199,26.9999294 L31.0001199,31.0000847 L28.9998534,31.0000847 L28.9998534,28.9998071 L22.9998534,28.9998071 L22.9998534,26.9999294 L31.0001199,26.9999294 Z M32.9999467,20.9999365 L32.9999467,26.9999694 L31.00008,26.9999694 L31.00008,22.9998142 L25.00008,22.9998142 L25.00008,20.9999365 L32.9999467,20.9999365 Z M40.9998534,15.0001834 L40.9998534,17.0000611 L34.9998534,17.0000611 L34.9998534,20.9998166 L32.9999867,20.9998166 L32.9999867,17.0000611 L24.9999867,17.0000611 L24.9999867,15.0001834 L40.9998534,15.0001834 Z M43,10.9998683 L43,15.0000235 L41.0001333,15.0000235 L41.0001333,10.9998683 L43,10.9998683 Z M26.9998267,1 L26.9998267,7.00003293 L25.00008,7.00015287 L25.00008,9.00003057 L41.0002132,9.00003057 L41.0002132,10.9999083 L20.9999467,10.9999083 L20.9999467,9.00003057 L22.9998134,9.00003057 L22.9998134,7.00015287 L24.99996,7.00003293 L24.99996,2.9998777 L20.9998667,2.99995767 L20.9998667,4.99983537 L19,4.99983537 L19,6.99971307 L14.9998667,6.99971307 L14.9998667,4.99983537 L19,4.99983537 L19,2.99995767 L20.9998267,2.9998777 L20.9998267,1 L26.9998267,1 Z M14.9998667,7.00011289 L14.9998667,8.99999059 L11.0001333,8.99999059 L11.0001333,10.9998683 L7,10.9998683 L7,8.99999059 L10.9997335,8.99999059 L10.9997335,7.00011289 L14.9998667,7.00011289 Z" id="Combined-Shape" fill="currentColor"></path>
  </g>
</svg>