<?xml version="1.0" encoding="UTF-8"?>
<svg width="982px" height="1458px" viewBox="0 0 982 1458" version="1.1" xmlns="http://www.w3.org/2000/svg" xmlns:xlink="http://www.w3.org/1999/xlink">
    <title>ill-howto</title>
    <g id="ill-howto" stroke="none" stroke-width="1" fill="none" fill-rule="evenodd">
        <g id="Group-12" transform="translate(491.000000, 764.500000) rotate(-270.000000) translate(-491.000000, -764.500000) translate(-222.000000, 274.000000)">
            <g id="Group-14" transform="translate(-0.000000, 0.000000)">
                <polygon id="Fill-1" fill="#FEFEFE" points="202.845203 0.000494208 0 808.458064 366.882722 948.18055 581.576561 95.3949934"></polygon>
                <path d="M253.855375,837.28151 L260.813824,809.655283 L128.516814,791.275687 L253.855375,837.28151 Z M314.208056,817.13265 L304.417796,855.994696 L368.313948,879.059383 L356.401064,926.350147 L18.7779272,796.000316 L34.582699,733.255668 L394.376007,775.579641 L381.521657,826.616502 L314.208056,817.13265 Z" id="Fill-2" fill="#A07DFF"></path>
                <g id="Group-13" transform="translate(48.149760, 21.540056)" fill="#A07DFF">
                    <path d="M156.593695,641.048069 L160.134696,627.000207 C163.789364,612.485318 155.602808,605.445325 140.151395,601.553437 L91.4595521,589.289666 C76.4726945,585.511445 68.1576449,586.907583 64.147147,602.823552 L60.6086177,616.873885 L156.593695,641.048069 Z M361.675189,692.70269 L348.351342,745.612598 L-0.003522432,657.87091 L21.5760699,572.185127 C30.4223931,537.066706 49.8818331,523.048496 88.7512923,532.838757 L150.552003,548.406309 C179.581781,555.718116 187.402622,572.123351 189.253431,582.551139 C197.358442,572.140648 209.548083,563.264672 232.961187,569.163045 L355.168941,599.942319 C369.216803,603.483319 376.476719,602.32193 382.216945,601.276681 L384.55702,601.867259 L371.34684,654.310141 C367.012636,655.706279 360.219747,656.981335 341.486792,652.26412 L236.608442,625.848702 C221.157029,621.954343 213.897113,623.115732 209.651866,639.970696 L206.231947,653.551532 L361.675189,692.70269 Z" id="Fill-3"></path>
                    <path d="M196.103648,484.192381 L199.642178,470.146989 C203.296846,455.627158 195.11029,448.592107 179.658877,444.700219 L130.967034,432.436448 C115.980176,428.658228 107.665127,430.049423 103.654629,445.970334 L100.116099,460.015725 L196.103648,484.192381 Z M401.185142,535.847001 L387.858823,588.754438 L39.5039593,501.015221 L61.0835516,415.329438 C69.9298748,380.213489 89.3893148,366.192808 128.258774,375.983068 L190.059484,391.548149 C219.089262,398.859956 226.910104,415.270133 228.763384,425.69298 C236.865924,415.289901 249.055564,406.406513 272.468668,412.304885 L394.676423,443.08663 C408.726756,446.62516 415.984201,445.463771 421.721955,444.423463 L424.064501,445.014041 L410.854322,497.451981 C406.520117,498.853061 399.724757,500.128118 380.994274,495.410902 L276.115923,468.995485 C260.66451,465.101126 253.404595,466.257572 249.159348,483.112536 L245.739429,496.695843 L401.185142,535.847001 Z" id="Fill-5"></path>
                    <polygon id="Fill-7" points="440.693118 378.991065 427.366799 431.900974 79.0119352 344.156814 92.338254 291.249377"></polygon>
                    <polygon id="Fill-9" points="94.6968616 281.886853 108.257929 228.040421 354.002857 264.542623 120.405562 179.810662 133.025163 129.712797 470.294942 261.466179 454.136811 325.611906"></polygon>
                    <polygon id="Fill-11" points="165.693547 0.012108096 216.26091 12.7478483 199.279923 80.1701747 290.579909 103.168144 303.908699 50.2582355 356.816136 63.5870252 343.489817 116.494463 444.157516 141.849804 461.850162 71.6179052 514.7576 84.9442239 483.741106 208.086031 135.383771 120.341872"></polygon>
                </g>
            </g>
            <g id="Group-6" transform="translate(303.600000, 33.600000)">
                <polygon id="Fill-1" fill="#FEFEFE" points="401.395985 0.000494208 0.000247104 543.673773 350.692715 738.663539 715.628257 231.942193 715.628257 231.937251"></polygon>
                <polygon id="Fill-2" fill="#A07DFF" points="116.973103 412.167001 318.844716 530.56194 146.506973 372.150979 176.903236 330.971098 438.692627 581.210847 403.994283 628.219912 222.303654 522.318551 376.756009 665.124895 340.911103 713.685773 25.2135037 536.482552 57.9053629 492.191631 259.389022 610.307343 86.8634807 452.956458"></polygon>
                <polygon id="Fill-3" fill="#A07DFF" points="504.069921 492.637407 471.669644 536.535433 182.639508 323.198194 215.039785 279.30264"></polygon>
                <polygon id="Fill-4" fill="#A07DFF" points="309.668509 151.100637 351.624297 182.06771 324.381081 218.972692 571.455429 401.342857 539.339322 444.85293 292.264974 262.485236 265.0267 299.390218 223.070912 268.423145"></polygon>
                <polygon id="Fill-5" fill="#A07DFF" points="639.127577 309.65986 606.727301 353.557886 317.697165 140.223118 350.097441 96.3250929 465.865665 181.773656 487.944408 151.856775 372.181126 66.4082116 404.581402 22.510186 693.611538 235.844953 661.208791 279.742979 534.177566 185.981837 512.098824 215.898718"></polygon>
            </g>
            <g id="Group-10" transform="translate(1031.808741, 534.915660) rotate(-15.000000) translate(-1031.808741, -534.915660) translate(710.308741, 212.415660)">
                <polygon id="Fill-1" fill="#FEFEFE" points="296.730696 0.590352477 -0.000988416 417.842941 318.28379 644.192676 642.743697 187.949735"></polygon>
                <polygon id="Fill-2" fill="#A07DFF" points="346.690866 576.168158 315.071438 620.632051 22.3149738 412.437047 53.9368727 367.973153"></polygon>
                <g id="Group-9" transform="translate(65.447040, 20.019556)" fill="#A07DFF">
                    <path d="M282.122033,464.934855 L289.680945,454.306911 C299.191978,440.931172 294.909665,431.958826 279.166669,420.765015 L114.298881,303.516638 C97.3747277,291.482673 88.3949683,291.613638 80.5593005,302.632005 L71.6042515,315.224425 L282.122033,464.934855 Z M0.24308736,331.427034 L48.655703,263.352353 C75.7976064,225.18467 105.833098,228.765207 140.459781,253.38912 L318.713194,380.153472 C354.523505,405.622481 367.432218,434.951255 341.407225,471.547358 L292.99708,539.622039 L0.24308736,331.427034 Z" id="Fill-3"></path>
                    <polygon id="Fill-5" points="167.305654 96.510945 209.800129 126.729293 169.507351 183.392711 246.235614 237.958217 277.857512 193.494323 322.318935 225.116222 290.701978 269.580116 375.302975 329.744997 417.27606 270.721736 461.739954 302.341164 388.14497 405.828319 95.3885057 197.635786"></polygon>
                    <path d="M402.428569,176.624286 L418.937588,153.408865 L302.334152,88.2623663 L402.428569,176.624286 Z M465.976305,179.755093 L442.748529,212.412358 L493.916354,257.096174 L465.652599,296.837911 L198.362673,52.8375369 L235.863176,0.108014336 L555.761543,170.132864 L525.259026,213.022705 L465.976305,179.755093 Z" id="Fill-7"></path>
                </g>
            </g>
            <g id="Group-4" transform="translate(744.300000, 771.600000) rotate(-90.000000) translate(-744.300000, -771.600000) translate(535.300000, 527.100000)">
                <polygon id="Fill-1" fill="#FEFEFE" points="278.601358 -0.000494208 -0.000988416 106.943646 93.2832426 488.370909 417.142687 365.164855"></polygon>
                <path d="M119.783417,330.951329 L146.418757,320.844776 L85.7720223,201.839489 L119.783417,330.951329 Z M170.847458,368.906504 L133.376608,383.122397 L151.032189,448.718625 L105.436559,466.018376 L19.0885369,114.557414 L79.5845382,91.6063949 L250.805371,410.867234 L201.59708,429.535941 L170.847458,368.906504 Z" id="Fill-2" fill="#A07DFF"></path>
                <polygon id="Fill-3" fill="#A07DFF" points="177.551143 54.4375054 289.679525 217.943751 221.342914 37.8222324 267.840473 20.1814779 395.269535 356.05759 353.736295 371.815412 231.674332 197.093116 304.980205 390.311146 258.932374 407.78387 131.500841 71.9077582"></polygon>
            </g>
        </g>
    </g>
</svg>