<?xml version="1.0" encoding="UTF-8"?>
<svg width="99px" height="64px" viewBox="0 0 99 64" version="1.1" xmlns="http://www.w3.org/2000/svg" xmlns:xlink="http://www.w3.org/1999/xlink">
  <title>number-go</title>
  <g id="number-go" stroke="none" stroke-width="1" fill="none" fill-rule="evenodd">
    <path d="M62.25,47.39 L58.39,31.61 L62.54,14.5 L72.61,8.64 L82.14,10.49 L87.71,17.21 L91.31,29.8 L89.65,45.85 L81.09,55.97 L69.77,55.97 L62.25,47.39 Z M71.3,0.96 L56.18,9.77 L50.88,31.62 L55.58,50.86 L66.46,63.26 L84.47,63.26 L96.67,48.84 L98.69,29.15 L94.28,13.73 L86.07,3.83 L71.3,0.96 Z" id="Shape" fill="currentColor" fill-rule="nonzero"></path>
    <polygon id="Path" fill="currentColor" fill-rule="nonzero" points="45.79 32.66 38.63 32.64 24.22 32.66 24.22 38.66 38.69 38.66 38.76 45.85 30.2 55.97 18.88 55.97 11.36 47.39 7.51 31.61 11.65 14.5 21.72 8.64 31.24 10.5 36.81 17.22 37.18 20.33 44.32 20.11 43.4 13.74 35.2 3.83 20.41 0.96 5.3 9.76 -1.77635684e-14 31.62 4.7 50.86 15.58 63.26 33.59 63.26 45.79 48.85 45.76 38.66 45.79 38.66"></polygon>
  </g>
</svg>