<?xml version="1.0" encoding="UTF-8"?>
<svg width="99px" height="64px" viewBox="0 0 99 64" version="1.1" xmlns="http://www.w3.org/2000/svg" xmlns:xlink="http://www.w3.org/1999/xlink">
  <title>number-03</title>
  <g id="number-03" stroke="none" stroke-width="1" fill="none" fill-rule="evenodd">
    <polygon id="Path" fill="currentColor" fill-rule="nonzero" points="79.73 0 69.56 1.63 67.98 2.29 57.21 10.19 61.52 16.07 71.59 8.69 79.68 7.39 86.28 10.89 89.3 16.7 84.5 22.95 73.48 25.79 73.66 32.9 85.32 35.28 90.04 41.62 88.05 50.66 78.27 56.29 67.67 53.7 62.09 47.44 56.65 52.29 62.97 59.4 64.83 60.52 77.95 63.72 80.64 63.34 93.08 56.18 94.83 53.8 97.52 41.56 96.88 38.6 90.35 29.81 88.83 28.84 96.5 19.3 96.85 15.4 92.23 6.51 90.7 4.97 82.02 0.38"></polygon>
    <path d="M11.36,47.2 L7.51,31.42 L11.65,14.31 L21.72,8.45 L31.24,10.3 L36.81,17 L40.42,29.59 L38.76,45.59 L30.2,55.77 L18.88,55.77 L11.36,47.2 Z M5.3,9.57 L0,31.42 L4.7,50.66 L15.58,63.07 L33.58,63.07 L45.78,48.65 L47.78,28.96 L43.4,13.54 L35.2,3.64 L20.41,0.77 L5.3,9.57 Z" id="Shape" fill="currentColor" fill-rule="nonzero"></path>
  </g>
</svg>