<?xml version="1.0" encoding="UTF-8"?>
<svg width="99px" height="64px" viewBox="0 0 99 64" version="1.1" xmlns="http://www.w3.org/2000/svg" xmlns:xlink="http://www.w3.org/1999/xlink">
  <title>number-04</title>
  <g id="number-04" stroke="none" stroke-width="1" fill="none" fill-rule="evenodd">
    <polygon id="Path" fill="currentColor" fill-rule="nonzero" points="55.59 41.35 55.18 43.05 55.18 46.3 58.9 50.02 82.66 50.02 82.66 62.93 90.09 62.93 90.09 50.02 98.98 50.02 98.98 42.59 90.09 42.59 90.09 24.25 82.66 24.25 82.66 42.59 63.32 42.59 83.17 3.89 76.55 0.5"></polygon>
    <path d="M11.36,46.93 L7.51,31.14 L11.65,14.04 L21.71,8.18 L31.24,10.03 L36.81,16.76 L40.42,29.34 L38.76,45.39 L30.2,55.5 L18.88,55.5 L11.36,46.93 Z M20.42,0.5 L5.3,9.3 L0,31.16 L4.7,50.4 L15.58,62.8 L33.58,62.8 L45.78,48.38 L47.78,28.69 L43.4,13.28 L35.2,3.37 L20.42,0.5 Z" id="Shape" fill="currentColor" fill-rule="nonzero"></path>
  </g>
</svg>