<?xml version="1.0" encoding="UTF-8"?>
<svg width="99px" height="64px" viewBox="0 0 99 64" version="1.1" xmlns="http://www.w3.org/2000/svg" xmlns:xlink="http://www.w3.org/1999/xlink">
  <title>number-02</title>
  <g id="number-02" stroke="none" stroke-width="1" fill="none" fill-rule="evenodd">
    <polygon id="Path" fill="currentColor" fill-rule="nonzero" points="70.15 0.8 67.75 1.68 56.73 10.97 61.54 16.68 71.52 8.26 80.59 8.26 87.33 12.95 87.33 21.25 78.47 30.81 64.23 41.09 57.66 50.53 57.04 52.83 57.45 59.3 61.17 62.8 97.52 62.8 97.52 55.34 64.68 55.34 64.57 53.62 69.15 46.75 83.14 36.64 93.8 25.25 94.78 22.71 94.78 11 93.19 7.93 83.9 1.47 81.77 0.8"></polygon>
    <path d="M11.36,46.93 L7.51,31.15 L11.65,14.04 L21.72,8.18 L31.24,10.03 L36.81,16.76 L40.42,29.34 L38.76,45.39 L30.2,55.5 L18.88,55.5 L11.36,46.93 Z M20.41,0.5 L5.3,9.3 L0,31.15 L4.7,50.4 L15.58,62.8 L33.58,62.8 L45.78,48.38 L47.78,28.69 L43.4,13.28 L35.2,3.37 L20.41,0.5 Z" id="Shape" fill="currentColor" fill-rule="nonzero"></path>
  </g>
</svg>