<?xml version="1.0" encoding="UTF-8"?>
<svg width="99px" height="64px" viewBox="0 0 99 64" version="1.1" xmlns="http://www.w3.org/2000/svg" xmlns:xlink="http://www.w3.org/1999/xlink">
  <title>number-01</title>
  <g id="number-01" stroke="none" stroke-width="1" fill="none" fill-rule="evenodd">
    <path d="M11.36,47.61 L7.51,31.83 L11.65,14.73 L21.72,8.87 L31.24,10.72 L36.81,17.44 L40.42,30.03 L38.76,46.03 L30.2,56.19 L18.88,56.19 L11.36,47.61 Z M5.3,9.99 L0,31.84 L4.7,51.08 L15.58,63.5 L33.58,63.5 L45.78,49.08 L47.78,29.38 L43.4,13.96 L35.2,4.05 L20.41,1.18 L5.3,9.99 Z" id="Shape" fill="currentColor" fill-rule="nonzero"></path>
    <polygon id="Path" fill="currentColor" fill-rule="nonzero" points="76.09 0.5 69.91 12.8 63.51 12.8 63.51 20.09 72.16 20.09 75.42 18.08 75.7 17.53 75.7 56.19 61.64 56.19 61.64 63.49 95.88 63.49 95.88 56.19 83 56.19 83 2.14"></polygon>
  </g>
</svg>