<?xml version="1.0" encoding="UTF-8"?>
<svg width="540px" height="666px" viewBox="0 0 540 666" version="1.1" xmlns="http://www.w3.org/2000/svg" xmlns:xlink="http://www.w3.org/1999/xlink">
    <title>title-what-makes-mozfest-different-from-other-events</title>
    <g id="what-makes-mozfest-different-from-other-events" stroke="none" stroke-width="1" fill="none" fill-rule="evenodd">
        <polygon id="Path" fill="#202020" fill-rule="nonzero" points="274.773228 497.941892 268.473228 555.041892 287.573228 502.541892 301.073228 507.441892 265.473228 605.341892 253.373228 600.941892 259.673228 539.441892 239.173228 595.741892 225.773228 590.841892 261.373228 493.041892"></polygon>
        <polygon id="Path" fill="#202020" fill-rule="nonzero" points="344.573228 523.341892 339.373228 537.541892 326.873228 533.041892 296.373228 616.641892 281.673228 611.241892 312.173228 527.641892 299.673228 523.141892 304.873228 508.941892"></polygon>
        <path d="M368.573228,531.041892 C380.773228,535.541892 383.573228,542.641892 379.373228,554.141892 L373.573228,570.241892 L359.273228,565.041892 L364.373228,550.941892 C365.573228,547.641892 365.773228,544.941892 362.273228,543.641892 C358.673228,542.341892 357.073228,544.341892 355.473228,548.941892 L354.773228,550.741892 C352.773228,556.241892 352.673228,559.641892 355.373228,567.941892 L360.373228,583.641892 C363.873228,594.741892 364.173228,600.541892 360.173228,611.541892 L358.973228,614.741892 C353.773228,629.041892 344.473228,635.341892 331.473228,630.641892 L328.573228,629.541892 C316.773228,625.241892 312.773228,616.441892 317.173228,604.341892 L324.273228,584.741892 L338.973228,590.141892 L332.773228,607.241892 C331.173228,611.741892 331.773228,614.641892 335.173228,615.841892 C338.773228,617.141892 340.873228,615.241892 343.073228,609.241892 L343.873228,607.041892 C346.373228,600.041892 346.673228,597.341892 343.773228,588.441892 L338.673228,572.841892 C335.373228,562.341892 335.773228,555.441892 339.373228,545.641892 L340.473228,542.441892 C345.173228,529.441892 353.973228,525.741892 365.673228,530.041892 L368.573228,531.041892 Z" id="Path" fill="#202020" fill-rule="nonzero"></path>
        <path d="M376.573228,645.841892 L362.873228,640.841892 L368.973228,624.041892 L382.673228,629.041892 L376.573228,645.841892 Z M370.973228,620.941892 L376.673228,605.141892 C379.673228,596.841892 381.173228,594.541892 387.673228,589.141892 L393.873228,584.041892 C398.473228,580.341892 399.573228,577.741892 401.573228,572.341892 L404.173228,565.241892 C405.473228,561.541892 405.073228,559.741892 402.273228,558.741892 C399.373228,557.641892 398.173228,558.941892 396.873228,562.541892 L391.173228,578.341892 L376.973228,573.141892 L382.673228,557.341892 C386.673228,546.441892 392.473228,539.141892 405.973228,544.041892 L408.873228,545.141892 C422.373228,550.041892 423.873228,558.341892 419.673228,569.841892 L416.173228,579.541892 C413.773228,586.141892 410.673228,590.041892 403.873228,595.041892 L397.373228,599.541892 C391.373228,603.741892 390.073228,606.141892 387.273228,613.741892 L383.073228,625.141892 L370.973228,620.941892 Z" id="Shape" fill="#202020" fill-rule="nonzero"></path>
        <path d="M86.95,12.2679294 L94.05,79.7679294 L101.35,12.2679294 L116.15,12.2679294 L102.95,116.467929 L85.95,116.467929 L79.35,55.8679294 L72.65,116.467929 L55.15,116.467929 L42.15,12.2679294 L58.15,12.2679294 L65.25,79.5679294 L72.25,12.2679294 C72.25,12.2679294 86.95,12.2679294 86.95,12.2679294 Z" id="Path" fill="#202020" fill-rule="nonzero"></path>
        <polygon id="Path" fill="#202020" fill-rule="nonzero" points="245.25 12.2679294 245.25 27.3679294 231.95 27.3679294 231.95 116.367929 216.25 116.367929 216.25 27.3679294 203.05 27.3679294 203.05 12.2679294"></polygon>
        <polygon id="Path" fill="#202020" fill-rule="nonzero" points="263.45 12.2679294 283.75 12.2679294 291.35 67.2679294 299.05 12.2679294 317.95 12.2679294 317.95 116.467929 303.15 116.467929 303.15 49.1679294 293.65 116.467929 287.35 116.467929 277.65 49.1679294 277.65 116.467929 263.55 116.467929"></polygon>
        <path d="M348.15,96.8679294 L336.55,96.8679294 L334.55,116.467929 L320.45,116.467929 L333.15,12.2679294 L351.95,12.2679294 L365.55,116.467929 L350.25,116.467929 L348.15,96.8679294 Z M338.25,81.3679294 L346.55,81.3679294 L342.35,42.8679294 L338.25,81.3679294 Z" id="Shape" fill="#202020" fill-rule="nonzero"></path>
        <polygon id="Path" fill="#202020" fill-rule="nonzero" points="383.85 116.467929 368.05 116.467929 368.05 12.2679294 383.85 12.2679294 383.85 53.9679294 396.35 12.2679294 411.75 12.2679294 397.05 60.7679294 413.25 116.467929 397.05 116.467929 383.85 71.2679294"></polygon>
        <polygon id="Path" fill="#202020" fill-rule="nonzero" points="451.35 12.2679294 451.35 27.3679294 431.15 27.3679294 431.15 54.6679294 447.05 54.6679294 447.05 70.4679294 431.25 70.4679294 431.25 100.567929 452.25 100.567929 452.25 116.367929 415.45 116.367929 415.45 12.2679294"></polygon>
        <path d="M478.25,11.3679294 C491.25,11.3679294 496.35,17.0679294 496.35,29.4679294 L496.35,46.5679294 L481.05,46.5679294 L481.05,31.5679294 C481.05,28.0679294 480.35,25.3679294 476.55,25.3679294 C472.75,25.3679294 471.95,27.7679294 471.95,32.6679294 L471.95,34.6679294 C471.95,40.5679294 473.05,43.7679294 478.35,50.6679294 L488.45,63.6679294 C495.55,72.8679294 497.85,78.2679294 497.85,89.9679294 L497.85,93.3679294 C497.85,108.667929 491.25,117.767929 477.45,117.767929 L474.35,117.767929 C461.75,117.767929 455.05,110.867929 455.05,98.0679294 L455.05,76.9679294 L470.75,76.9679294 L470.75,95.1679294 C470.75,99.9679294 472.25,102.467929 475.95,102.467929 C479.75,102.467929 481.15,99.9679294 481.15,93.4679294 L481.15,91.0679294 C481.15,83.6679294 480.45,80.9679294 474.75,73.5679294 L464.65,60.6679294 C457.95,51.9679294 455.95,45.2679294 455.95,34.8679294 L455.95,31.4679294 C455.95,17.5679294 462.95,11.1679294 475.45,11.1679294 L478.25,11.1679294 L478.25,11.3679294 L478.25,11.3679294 Z" id="Path" fill="#202020" fill-rule="nonzero"></path>
        <polygon id="Path" fill="#202020" fill-rule="nonzero" transform="translate(140.874976, 55.748242) rotate(10.000000) translate(-140.874976, -55.748242) " points="142.874976 102.148242 137.474976 71.5482417 148.174976 69.6482417 153.874976 102.148242 169.974976 102.148242 153.574976 9.34824171 137.974976 12.1482417 145.274976 53.2482417 134.574976 55.0482417 127.374976 14.0482417 111.774976 16.7482417 126.874976 102.148242"></polygon>
        <path d="M187.191924,111.283541 L186.291924,98.5835409 L197.691924,96.5835409 L201.891924,111.283541 L217.691924,111.283541 L186.691924,12.5835409 L168.191924,15.8835409 L173.291924,111.283541 L187.191924,111.283541 Z M182.591924,44.3835409 L193.391924,81.5835409 L185.191924,82.9835409 L182.591924,44.3835409 Z" id="Shape" fill="#202020" fill-rule="nonzero" transform="translate(192.941924, 61.933541) rotate(10.000000) translate(-192.941924, -61.933541) "></path>
        <polygon id="Path" fill="#202020" fill-rule="nonzero" transform="translate(137.336252, 164.790343) rotate(10.000000) translate(-137.336252, -164.790343) " points="110.086252 112.690343 130.386252 112.690343 137.986252 167.690343 145.686252 112.690343 164.586252 112.690343 164.586252 216.890343 149.786252 216.890343 149.786252 149.590343 140.286252 216.890343 133.986252 216.890343 124.286252 149.590343 124.286252 216.890343 110.186252 216.890343"></polygon>
        <path d="M212.443189,203.026603 C212.443189,217.626603 207.543189,227.526603 192.243189,227.526603 L189.543189,227.526603 C174.443189,227.526603 169.143189,217.626603 169.143189,203.026603 L169.143189,145.026603 C169.243189,130.626603 174.643189,121.126603 189.543189,121.126603 L192.243189,121.126603 C207.643189,121.126603 212.543189,130.626603 212.543189,144.926603 L212.443189,203.026603 Z M196.343189,144.226603 C196.343189,138.726603 194.543189,136.226603 190.843189,136.226603 C186.743189,136.226603 185.243189,138.926603 185.243189,144.226603 L185.243189,204.126603 C185.243189,208.626603 186.543189,212.126603 190.943189,212.126603 C195.143189,212.126603 196.243189,208.626603 196.243189,204.126603 L196.343189,144.226603 Z" id="Shape" fill="#202020" fill-rule="nonzero" transform="translate(190.843189, 174.326603) rotate(10.000000) translate(-190.843189, -174.326603) "></path>
        <polygon id="Path" fill="#202020" fill-rule="nonzero" transform="translate(235.029182, 182.016243) rotate(10.000000) translate(-235.029182, -182.016243) " points="254.179182 129.916243 254.179182 143.616243 231.379182 218.816243 255.279182 218.816243 255.279182 234.116243 214.779182 234.116243 214.779182 220.016243 237.279182 144.816243 216.179182 144.816243 216.279182 129.916243"></polygon>
        <polygon id="Path" fill="#202020" fill-rule="nonzero" transform="translate(276.449030, 189.268908) rotate(10.000000) translate(-276.449030, -189.268908) " points="258.44903 137.218908 294.44903 137.218908 294.44903 152.318908 274.24903 152.318908 274.24903 179.718908 290.24903 179.718908 290.24903 195.518908 274.24903 195.518908 274.24903 241.318908 258.44903 241.318908"></polygon>
        <polygon id="Path" fill="#202020" fill-rule="nonzero" points="145.705375 485.415131 128.705375 485.415131 106.205375 547.515131 140.805375 560.115131 146.205375 545.215131 126.505375 538.015131 136.805375 509.715131 151.805375 515.215131 157.205375 500.315131 142.305375 494.915131"></polygon>
        <polygon id="Path" fill="#202020" fill-rule="nonzero" points="200.205375 485.415131 174.905375 537.915131 188.205375 485.415131 172.405375 485.415131 154.405375 564.915131 172.405375 571.515131 216.605375 485.415131"></polygon>
        <polygon id="Path" fill="#202020" fill-rule="nonzero" points="220.605375 485.415131 187.405375 577.015131 222.005375 589.615131 227.405375 574.715131 207.705375 567.615131 218.005375 539.315131 232.905375 544.715131 238.305375 529.815131 223.405375 524.415131 232.705375 498.715131 251.605375 505.615131 256.805375 491.415131 240.505375 485.415131"></polygon>
        <polygon id="Path" fill="#202020" fill-rule="nonzero" points="46.805375 373.315131 82.805375 373.315131 82.805375 388.415131 62.605375 388.415131 62.605375 415.815131 78.605375 415.815131 78.605375 431.615131 62.605375 431.615131 62.605375 477.415131 46.805375 477.415131"></polygon>
        <path d="M299.505375,454.315131 C299.505375,468.915131 294.605375,478.815131 279.305375,478.815131 L276.605375,478.815131 C261.505375,478.815131 256.205375,468.915131 256.205375,454.315131 L256.205375,396.315131 C256.205375,381.915131 261.705375,372.415131 276.505375,372.415131 L279.205375,372.415131 C294.605375,372.415131 299.505375,381.915131 299.505375,396.215131 L299.505375,454.315131 Z M283.405375,395.515131 C283.405375,390.015131 281.605375,387.515131 277.905375,387.515131 C273.805375,387.515131 272.305375,390.215131 272.305375,395.515131 L272.305375,455.415131 C272.305375,459.915131 273.605375,463.415131 278.005375,463.415131 C282.205375,463.415131 283.305375,459.915131 283.305375,455.415131 L283.305375,395.515131 L283.405375,395.515131 Z" id="Shape" fill="#202020" fill-rule="nonzero"></path>
        <polygon id="Path" fill="#202020" fill-rule="nonzero" points="344.605375 373.315131 344.605375 388.415131 331.305375 388.415131 331.305375 477.415131 315.605375 477.415131 315.605375 388.415131 302.305375 388.415131 302.305375 373.315131"></polygon>
        <polygon id="Path" fill="#202020" fill-rule="nonzero" points="364.305375 477.515131 348.505375 477.515131 348.505375 373.315131 364.305375 373.315131 364.305375 415.015131 375.105375 415.015131 375.105375 373.315131 390.905375 373.315131 390.905375 477.515131 375.105375 477.515131 375.105375 431.715131 364.305375 431.715131"></polygon>
        <polygon id="Path" fill="#202020" fill-rule="nonzero" points="432.805375 373.315131 432.805375 388.415131 412.605375 388.415131 412.605375 415.715131 428.405375 415.715131 428.405375 431.515131 412.605375 431.515131 412.605375 461.615131 433.605375 461.615131 433.605375 477.415131 396.805375 477.415131 396.805375 373.315131"></polygon>
        <path d="M453.505375,477.515131 L437.705375,477.515131 L437.705375,373.315131 L463.305375,373.315131 C473.805375,373.315131 479.105375,377.815131 479.105375,389.415131 L479.105375,407.915131 C479.105375,416.615131 475.005375,419.915131 472.205375,421.215131 C475.705375,422.715131 479.105375,425.515131 479.105375,432.515131 L479.105375,469.015131 C479.105375,473.215131 479.905375,475.215131 480.605375,476.715131 L480.605375,477.415131 L464.905375,477.415131 C464.205375,476.315131 463.405375,474.515131 463.405375,468.915131 L463.405375,437.615131 C463.405375,433.015131 462.605375,431.015131 457.505375,431.015131 L453.405375,431.015131 L453.405375,477.515131 L453.505375,477.515131 Z M453.505375,416.215131 L457.705375,416.215131 C462.005375,416.215131 463.405375,413.415131 463.405375,408.815131 L463.405375,394.215131 C463.405375,389.715131 462.405375,387.515131 457.705375,387.515131 L453.505375,387.515131 L453.505375,416.215131 Z" id="Shape" fill="#202020" fill-rule="nonzero"></path>
        <polygon id="Path" fill="#202020" fill-rule="nonzero" points="327.173448 240.91999 328.173448 235.21999 307.473448 231.51999 312.673448 201.91999 328.273448 204.61999 330.973448 189.11999 315.473448 186.31999 320.173448 159.41999 340.073448 162.91999 342.673448 148.11999 307.273448 141.71999 289.173448 244.31999"></polygon>
        <path d="M354.973448,212.61999 C359.273448,220.91999 359.473448,223.71999 358.273448,230.91999 L357.873448,233.31999 C357.473448,235.51999 357.073448,237.11999 356.473448,238.41999 L374.173448,236.81999 C374.273448,236.51999 374.273448,236.21999 374.373448,235.91999 L374.973448,232.61999 C376.973448,221.11999 375.673448,215.41999 370.273448,205.11999 L362.573448,190.51999 C358.573448,182.81999 358.073448,179.41999 359.073448,173.61999 L359.373448,171.61999 C360.273448,166.81999 361.473448,164.51999 365.173448,165.21999 C368.873448,165.91999 369.173448,168.61999 368.573448,172.11999 L365.973448,186.91999 L381.073448,189.61999 L384.073448,172.81999 C386.273448,160.61999 382.173448,154.11999 369.373448,151.81999 L366.573448,151.21999 C354.273448,149.01999 346.273448,154.11999 343.873448,167.81999 L343.273448,171.11999 C341.473448,181.31999 342.273448,188.31999 347.373448,198.01999 L354.973448,212.61999 Z" id="Path" fill="#202020" fill-rule="nonzero"></path>
        <path d="M347.773448,239.11999 C346.973448,237.71999 346.873448,235.71999 347.273448,233.11999 L350.473448,215.21999 L334.973448,212.51999 L331.373448,233.11999 C330.873448,235.81999 330.773448,238.31999 330.973448,240.61999 L347.773448,239.11999 Z" id="Path" fill="#202020" fill-rule="nonzero"></path>
        <polygon id="Path" fill="#202020" fill-rule="nonzero" points="389.573448 235.51999 405.773448 234.11999 415.873448 176.31999 428.973448 178.61999 431.673448 163.71999 389.973448 156.41999 387.373448 171.31999 400.473448 173.61999"></polygon>
        <path d="M81.573448,272.11999 L105.673448,270.01999 C119.173448,268.81999 124.073448,276.11999 125.173448,288.41999 L130.673448,351.61999 C131.773448,364.31999 127.773448,372.71999 114.773448,373.81999 L90.673448,375.91999 L81.573448,272.11999 Z M105.073448,359.41999 L108.873448,359.11999 C113.573448,358.71999 114.773448,356.11999 114.273448,350.51999 L109.173448,292.01999 C108.673448,286.01999 106.973448,284.01999 103.073448,284.41999 L98.573448,284.81999 L105.073448,359.41999 Z" id="Shape" fill="#202020" fill-rule="nonzero"></path>
        <polygon id="Path" fill="#202020" fill-rule="nonzero" points="153.773448 370.41999 137.973448 371.81999 128.973448 268.01999 144.773448 266.61999"></polygon>
        <polygon id="Path" fill="#202020" fill-rule="nonzero" points="150.573448 266.11999 186.373448 263.01999 187.673448 278.11999 167.573448 279.91999 169.973448 307.21999 185.873448 305.81999 187.273448 321.61999 171.373448 323.01999 175.373448 368.61999 159.573448 370.01999"></polygon>
        <polygon id="Path" fill="#202020" fill-rule="nonzero" points="190.473448 262.61999 226.273448 259.51999 227.573448 274.61999 207.473448 276.41999 209.873448 303.71999 225.773448 302.31999 227.173448 318.11999 211.273448 319.51999 215.273448 365.11999 199.473448 366.51999"></polygon>
        <polygon id="Path" fill="#202020" fill-rule="nonzero" points="266.173448 256.01999 267.473448 271.11999 247.373448 272.91999 249.773448 300.11999 265.573448 298.71999 266.973448 314.51999 251.173448 315.71999 253.773448 345.71999 274.673448 343.91999 276.073448 359.71999 239.373448 362.91999 230.273448 259.11999"></polygon>
        <path d="M295.873448,357.91999 L280.073448,359.31999 L271.073448,255.51999 L296.573448,253.31999 C307.073448,252.41999 312.673448,256.41999 313.773448,268.01999 L315.373448,286.41999 C316.173448,295.01999 312.373448,298.71999 309.673448,300.21999 C313.273448,301.41999 316.873448,303.91999 317.473448,310.91999 L320.673448,347.31999 C321.073448,351.51999 322.073448,353.41999 322.873448,354.81999 L322.973448,355.51999 L307.373448,356.91999 C306.573448,355.81999 305.573448,354.11999 305.073448,348.51999 L302.373448,317.31999 C301.973448,312.71999 300.973448,310.81999 295.973448,311.31999 L291.973448,311.71999 L295.873448,357.91999 Z M290.573448,296.81999 L294.773448,296.41999 C299.073448,296.01999 300.273448,293.11999 299.873448,288.51999 L298.573448,274.01999 C298.173448,269.51999 296.973448,267.41999 292.273448,267.81999 L288.073448,268.21999 L290.573448,296.81999 Z" id="Shape" fill="#202020" fill-rule="nonzero"></path>
        <polygon id="Path" fill="#202020" fill-rule="nonzero" points="353.673448 248.31999 354.973448 263.41999 334.873448 265.21999 337.273448 292.41999 353.073448 291.01999 354.473448 306.81999 338.673448 308.21999 341.273448 338.21999 362.173448 336.41999 363.573448 352.21999 326.873448 355.41999 317.773448 251.61999"></polygon>
        <polygon id="Path" fill="#202020" fill-rule="nonzero" points="372.773448 246.61999 391.173448 301.11999 386.273448 245.51999 400.673448 244.21999 409.773448 348.01999 396.973448 349.11999 376.673448 290.71999 381.873448 350.41999 367.673448 351.61999 358.573448 247.81999"></polygon>
        <polygon id="Path" fill="#202020" fill-rule="nonzero" points="446.673448 240.21999 447.973448 255.31999 434.773448 256.51999 442.573448 345.21999 426.973448 346.61999 419.173448 257.91999 405.973448 259.11999 404.673448 244.01999"></polygon>
        <path d="M128.234402,432.402177 C128.234402,425.402177 124.834402,422.602177 121.334402,421.102177 C124.134402,419.802177 128.234402,416.502177 128.234402,407.802177 L128.234402,389.302177 C128.234402,385.902177 127.734402,383.102177 126.834402,380.802177 L86.834402,384.302177 L86.834402,477.402177 L102.634402,477.402177 L102.634402,430.902177 L106.734402,430.902177 C111.834402,430.902177 112.634402,432.902177 112.634402,437.502177 L112.634402,468.802177 C112.634402,474.402177 113.434402,476.202177 114.134402,477.302177 L129.734402,477.302177 L129.734402,476.602177 C129.034402,475.102177 128.234402,473.102177 128.234402,468.902177 L128.234402,432.402177 L128.234402,432.402177 Z M112.534402,408.702177 C112.534402,413.302177 111.134402,416.102177 106.834402,416.102177 L102.634402,416.102177 L102.634402,387.402177 L106.834402,387.402177 C111.534402,387.402177 112.534402,389.602177 112.534402,394.102177 L112.534402,408.702177 Z" id="Shape" fill="#202020" fill-rule="nonzero"></path>
        <path d="M170.534402,377.002177 L137.134402,379.902177 C134.434402,384.002177 133.234402,389.602177 133.234402,396.202177 L133.234402,454.202177 C133.234402,468.802177 138.534402,478.702177 153.634402,478.702177 L156.334402,478.702177 C171.634402,478.702177 176.534402,468.802177 176.534402,454.202177 L176.534402,396.102177 C176.634402,387.802177 174.934402,381.102177 170.534402,377.002177 Z M160.434402,395.402177 L160.434402,455.302177 C160.434402,459.802177 159.334402,463.302177 155.134402,463.302177 C150.734402,463.302177 149.434402,459.802177 149.434402,455.302177 L149.434402,395.402177 C149.434402,390.102177 150.934402,387.402177 155.034402,387.402177 C158.734402,387.402177 160.534402,389.902177 160.434402,395.402177 L160.434402,395.402177 Z" id="Shape" fill="#202020" fill-rule="nonzero"></path>
        <polygon id="Path" fill="#202020" fill-rule="nonzero" points="209.934402 428.202177 202.434402 374.202177 182.134402 376.002177 182.134402 477.402177 196.234402 477.402177 196.234402 410.102177 205.934402 477.402177 212.234402 477.402177 221.734402 410.102177 221.734402 477.402177 236.534402 477.402177 236.534402 373.202177 217.634402 373.202177"></polygon>
    </g>
</svg>