<?xml version="1.0" encoding="UTF-8"?>
<svg width="540px" height="356px" viewBox="0 0 540 356" version="1.1" xmlns="http://www.w3.org/2000/svg" xmlns:xlink="http://www.w3.org/1999/xlink">
    <title>title-story-engine-quotes</title>
    <g id="story-engine-quotes" stroke="none" stroke-width="1" fill="none" fill-rule="evenodd">
        <path d="M37.1521302,11.9454739 C50.1521302,11.9454739 55.2521302,17.6454739 55.2521302,30.0454739 L55.2521302,47.1454739 L39.9521302,47.1454739 L39.9521302,32.1454739 C39.9521302,28.6454739 39.2521302,25.9454739 35.4521302,25.9454739 C31.6521302,25.9454739 30.8521302,28.3454739 30.8521302,33.2454739 L30.8521302,35.2454739 C30.8521302,41.1454739 31.9521302,44.3454739 37.2521302,51.2454739 L47.3521302,64.2454739 C54.4521302,73.4454739 56.7521302,78.8454739 56.7521302,90.5454739 L56.7521302,93.9454739 C56.7521302,109.245474 50.1521302,118.345474 36.3521302,118.345474 L33.2521302,118.345474 C20.6521302,118.345474 13.9521302,111.445474 13.9521302,98.6454739 L13.9521302,77.7454739 L29.6521302,77.7454739 L29.6521302,95.9454739 C29.6521302,100.745474 31.1521302,103.245474 34.8521302,103.245474 C38.6521302,103.245474 40.0521302,100.745474 40.0521302,94.2454739 L40.0521302,91.8454739 C40.0521302,84.4454739 39.3521302,81.7454739 33.6521302,74.3454739 L23.4521302,61.4454739 C16.7521302,52.7454739 14.7521302,46.0454739 14.7521302,35.6454739 L14.7521302,32.2454739 C14.7521302,18.4454739 21.7521302,11.9454739 34.2521302,11.9454739 L37.1521302,11.9454739 Z" id="Path" fill="#202020" fill-rule="nonzero" transform="translate(35.352130, 65.145474) rotate(6.000000) translate(-35.352130, -65.145474) "></path>
        <polygon id="Path" fill="#202020" fill-rule="nonzero" transform="translate(79.176499, 69.600774) rotate(6.000000) translate(-79.176499, -69.600774) " points="100.326499 17.5507745 100.326499 32.6507745 87.026499 32.6507745 87.026499 121.650774 71.326499 121.650774 71.326499 32.6507745 58.026499 32.6507745 58.026499 17.5507745"></polygon>
        <path d="M146.161018,103.216451 C146.161018,117.816451 141.261018,127.716451 125.961018,127.716451 L123.261018,127.716451 C108.161018,127.716451 102.861018,117.816451 102.861018,103.216451 L102.861018,45.2164507 C102.861018,30.8164507 108.361018,21.3164507 123.161018,21.3164507 L125.861018,21.3164507 C141.261018,21.3164507 146.161018,30.8164507 146.161018,45.1164507 L146.161018,103.216451 Z M130.061018,44.4164507 C130.061018,38.9164507 128.261018,36.4164507 124.561018,36.4164507 C120.461018,36.4164507 118.961018,39.1164507 118.961018,44.4164507 L118.961018,104.316451 C118.961018,108.816451 120.261018,112.316451 124.661018,112.316451 C128.861018,112.316451 129.961018,108.816451 129.961018,104.316451 L130.061018,44.4164507 Z" id="Shape" fill="#202020" fill-rule="nonzero" transform="translate(124.511018, 74.516451) rotate(6.000000) translate(-124.511018, -74.516451) "></path>
        <polygon id="Path" fill="#202020" fill-rule="nonzero" transform="translate(133.443147, 190.035529) rotate(-7.000000) translate(-133.443147, -190.035529) " points="151.043147 138.035529 151.043147 153.135529 130.843147 153.135529 130.843147 180.435529 146.643147 180.435529 146.643147 196.235529 130.843147 196.235529 130.843147 226.335529 151.843147 226.335529 151.843147 242.135529 115.043147 242.135529 115.043147 137.935529"></polygon>
        <polygon id="Path" fill="#202020" fill-rule="nonzero" transform="translate(176.773880, 184.765560) rotate(-7.000000) translate(-176.773880, -184.765560) " points="169.92388 132.71556 183.52388 188.61556 183.52388 132.71556 197.92388 132.71556 197.92388 236.91556 185.02388 236.91556 169.92388 176.91556 169.92388 236.81556 155.62388 236.81556 155.62388 132.61556"></polygon>
        <path d="M218.092705,232.400901 C208.892705,232.400901 202.992705,224.100901 202.992705,213.400901 L202.992705,148.300901 C202.992705,136.700901 207.492705,125.900901 222.492705,125.900901 L225.592705,125.900901 C242.492705,125.900901 244.492705,137.000901 244.492705,149.300901 L244.492705,159.900901 L229.092705,159.900901 L229.092705,148.100901 C229.092705,143.500901 227.992705,141.000901 224.092705,141.000901 C220.692705,141.000901 219.192705,143.500901 219.192705,148.100901 L219.192705,209.000901 C219.192705,213.900901 221.192705,216.400901 224.392705,216.400901 C228.492705,216.400901 230.292705,213.600901 230.292705,209.700901 L230.292705,183.700901 L223.192705,183.700901 L223.192705,167.700901 L245.292705,167.700901 L245.292705,231.000901 L236.292705,231.000901 C236.192705,230.400901 234.892705,225.300901 233.592705,220.800901 C232.492705,224.300901 227.192705,232.400901 219.192705,232.400901 L218.092705,232.400901 Z" id="Path" fill="#202020" fill-rule="nonzero" transform="translate(224.142705, 179.150901) rotate(-7.000000) translate(-224.142705, -179.150901) "></path>
        <path d="M300.168933,294.120064 C300.168933,306.820064 296.368933,315.920064 285.368933,318.020064 L292.668933,339.020064 L273.668933,339.020064 L273.668933,318.320064 C261.368933,316.920064 256.868933,307.420064 256.868933,294.120064 L256.868933,236.120064 C256.868933,221.720064 262.368933,212.220064 277.168933,212.220064 L279.868933,212.220064 C295.268933,212.220064 300.168933,221.720064 300.168933,236.020064 L300.168933,294.120064 Z M284.068933,235.320064 C284.068933,229.820064 282.268933,227.320064 278.568933,227.320064 C274.468933,227.320064 272.968933,230.020064 272.968933,235.320064 L272.968933,295.220064 C272.968933,299.720064 274.268933,303.220064 278.668933,303.220064 C282.868933,303.220064 283.968933,299.720064 283.968933,295.220064 L284.068933,235.320064 Z" id="Shape" fill="#202020" fill-rule="nonzero" transform="translate(278.518933, 275.620064) rotate(4.000000) translate(-278.518933, -275.620064) "></path>
        <path d="M305.928524,216.595492 L322.028524,216.595492 L322.028524,299.095492 C322.028524,303.595492 323.528524,306.495492 327.028524,306.495492 C330.828524,306.495492 332.228524,303.695492 332.228524,299.095492 L332.228524,216.595492 L348.328524,216.595492 L348.328524,298.095492 C348.328524,312.795492 342.428524,321.995492 328.428524,321.995492 L325.628524,321.995492 C311.628524,321.995492 305.928524,312.995492 305.928524,298.095492 L305.928524,216.595492 Z" id="Path" fill="#202020" fill-rule="nonzero" transform="translate(327.128524, 269.295492) rotate(4.000000) translate(-327.128524, -269.295492) "></path>
        <path d="M396.646598,300.841532 C396.646598,315.441532 391.746598,325.341532 376.446598,325.341532 L373.746598,325.341532 C358.646598,325.341532 353.346598,315.441532 353.346598,300.841532 L353.346598,242.841532 C353.346598,228.441532 358.846598,218.941532 373.646598,218.941532 L376.346598,218.941532 C391.746598,218.941532 396.646598,228.441532 396.646598,242.741532 L396.646598,300.841532 Z M380.546598,242.041532 C380.546598,236.541532 378.746598,234.041532 375.046598,234.041532 C370.946598,234.041532 369.446598,236.741532 369.446598,242.041532 L369.446598,301.941532 C369.446598,306.441532 370.746598,309.941532 375.146598,309.941532 C379.346598,309.941532 380.446598,306.441532 380.446598,301.941532 L380.546598,242.041532 Z" id="Shape" fill="#202020" fill-rule="nonzero" transform="translate(374.996598, 272.141532) rotate(4.000000) translate(-374.996598, -272.141532) "></path>
        <polygon id="Path" fill="#202020" fill-rule="nonzero" transform="translate(420.495982, 275.172793) rotate(4.000000) translate(-420.495982, -275.172793) " points="441.645982 223.122793 441.645982 238.222793 428.345982 238.222793 428.345982 327.222793 412.645982 327.222793 412.645982 238.222793 399.345982 238.222793 399.345982 223.122793"></polygon>
        <polygon id="Path" fill="#202020" fill-rule="nonzero" transform="translate(463.843628, 278.153834) rotate(4.000000) translate(-463.843628, -278.153834) " points="481.443628 226.153834 481.443628 241.253834 461.243628 241.253834 461.243628 268.553834 477.043628 268.553834 477.043628 284.353834 461.243628 284.353834 461.243628 314.453834 482.243628 314.453834 482.243628 330.253834 445.443628 330.253834 445.443628 226.053834"></polygon>
        <path d="M508.22915,228.13207 C521.22915,228.13207 526.32915,233.83207 526.32915,246.23207 L526.32915,263.33207 L511.02915,263.33207 L511.02915,248.33207 C511.02915,244.83207 510.32915,242.13207 506.52915,242.13207 C502.72915,242.13207 501.92915,244.53207 501.92915,249.43207 L501.92915,251.43207 C501.92915,257.33207 503.02915,260.53207 508.32915,267.43207 L518.42915,280.43207 C525.52915,289.63207 527.82915,295.03207 527.82915,306.73207 L527.82915,310.13207 C527.82915,325.43207 521.22915,334.53207 507.42915,334.53207 L504.32915,334.53207 C491.72915,334.53207 485.02915,327.63207 485.02915,314.83207 L485.02915,293.83207 L500.72915,293.83207 L500.72915,312.03207 C500.72915,316.83207 502.22915,319.33207 505.92915,319.33207 C509.72915,319.33207 511.12915,316.83207 511.12915,310.33207 L511.12915,307.93207 C511.12915,300.53207 510.42915,297.83207 504.72915,290.43207 L494.62915,277.53207 C487.92915,268.83207 485.92915,262.13207 485.92915,251.73207 L485.92915,248.33207 C485.92915,234.43207 492.92915,228.03207 505.42915,228.03207 L508.22915,228.13207 Z" id="Path" fill="#202020" fill-rule="nonzero" transform="translate(506.429150, 281.282070) rotate(4.000000) translate(-506.429150, -281.282070) "></path>
        <path d="M162.490288,124.47799 L166.590288,84.4779903 L170.690288,84.8779903 C175.790288,85.3779903 176.390288,87.4779903 175.890288,92.0779903 L172.590288,123.27799 L188.590288,121.27799 L191.990288,88.7779903 C192.690288,81.7779903 189.590288,78.6779903 186.290288,76.7779903 C189.190288,75.7779903 193.590288,72.8779903 194.590288,64.2779903 L196.490288,45.8779903 C197.690288,34.3779903 192.890288,29.2779903 182.490288,28.1779903 L156.990288,25.4779903 L146.390288,126.37799 L162.490288,124.47799 Z M171.190288,41.2779903 L175.390288,41.6779903 C180.090288,42.1779903 180.790288,44.4779903 180.390288,48.9779903 L178.890288,63.4779903 C178.390288,68.0779903 176.690288,70.6779903 172.490288,70.2779903 L168.290288,69.8779903 L171.190288,41.2779903 Z" id="Shape" fill="#202020" fill-rule="nonzero"></path>
        <polygon id="Path" fill="#202020" fill-rule="nonzero" points="203.890288 119.37799 219.990288 117.37799 222.490288 93.5779903 242.690288 34.4779903 228.490288 32.9779903 217.490288 70.9779903 214.290288 31.4779903 198.990288 29.8779903 206.790288 91.8779903"></polygon>
        <polygon id="Path" fill="#202020" fill-rule="nonzero" points="269.590288 202.77799 259.690288 122.07799 243.990288 123.97799 253.590288 201.67799"></polygon>
        <polygon id="Path" fill="#202020" fill-rule="nonzero" points="290.090288 204.27799 285.090288 163.57799 301.190288 204.97799 318.590288 206.27799 307.590288 116.27799 293.290288 118.07799 300.090288 173.47799 279.790288 119.67799 265.590288 121.37799 275.590288 203.27799"></polygon>
        <polygon id="Path" fill="#202020" fill-rule="nonzero" points="362.890288 209.27799 361.590288 198.67799 340.790288 201.27799 337.090288 171.37799 352.790288 169.47799 350.790288 153.77799 335.190288 155.67799 331.790288 128.67799 351.890288 126.17799 349.990288 111.17799 314.290288 115.47799 325.490288 206.67799"></polygon>
    </g>
</svg>