<?xml version="1.0" encoding="UTF-8"?>
<svg width="540px" height="592px" viewBox="0 0 540 592" version="1.1" xmlns="http://www.w3.org/2000/svg" xmlns:xlink="http://www.w3.org/1999/xlink">
    <title>title-what-makes-you-want-to-come-back-to-mozfest</title>
    <g id="what-makes-you-want-to-come-back-to-mozfest" stroke="none" stroke-width="1" fill="none" fill-rule="evenodd">
        <polygon id="Path" fill="#202020" fill-rule="nonzero" transform="translate(84.556281, 67.122701) rotate(5.000000) translate(-84.556281, -67.122701) " points="92.3562813 15.022701 99.4562813 82.522701 106.756281 15.022701 121.556281 15.022701 108.256281 119.222701 91.3562813 119.222701 84.7562813 58.522701 78.0562813 119.122701 60.5562813 119.122701 47.5562813 15.022701 63.5562813 15.022701 70.6562813 82.322701 77.6562813 15.022701"></polygon>
        <polygon id="Path" fill="#202020" fill-rule="nonzero" transform="translate(145.423777, 72.447917) rotate(5.000000) translate(-145.423777, -72.447917) " points="140.023777 124.547917 124.223777 124.547917 124.223777 20.3479168 140.023777 20.3479168 140.023777 62.0479168 150.823777 62.0479168 150.823777 20.3479168 166.623777 20.3479168 166.623777 124.547917 150.823777 124.547917 150.823777 78.7479168 140.023777 78.7479168"></polygon>
        <polygon id="Path" fill="#202020" fill-rule="nonzero" transform="translate(394.870930, 94.271715) rotate(5.000000) translate(-394.870930, -94.271715) " points="388.07093 146.371715 372.27093 146.371715 372.27093 42.1717148 388.07093 42.1717148 388.07093 83.8717148 400.57093 42.1717148 415.97093 42.1717148 401.27093 90.5717148 417.47093 146.271715 401.27093 146.271715 388.07093 101.071715"></polygon>
        <polygon id="Path" fill="#202020" fill-rule="nonzero" transform="translate(437.815637, 97.928508) rotate(5.000000) translate(-437.815637, -97.928508) " points="455.415637 45.9285079 455.415637 61.0285079 435.215637 61.0285079 435.215637 88.3285079 451.015637 88.3285079 451.015637 104.128508 435.215637 104.128508 435.215637 134.228508 456.215637 134.228508 456.215637 150.028508 419.415637 150.028508 419.415637 45.8285079"></polygon>
        <path d="M482.135719,48.649297 C495.135719,48.649297 500.235719,54.349297 500.235719,66.749297 L500.235719,83.849297 L484.935719,83.849297 L484.935719,68.849297 C484.935719,65.349297 484.235719,62.649297 480.435719,62.649297 C476.635719,62.649297 475.835719,65.049297 475.835719,69.949297 L475.835719,71.949297 C475.835719,77.849297 476.935719,81.049297 482.235719,87.949297 L492.335719,100.949297 C499.435719,110.149297 501.735719,115.549297 501.735719,127.249297 L501.735719,130.649297 C501.735719,145.949297 495.135719,155.049297 481.335719,155.049297 L478.235719,155.049297 C465.635719,155.049297 458.935719,148.149297 458.935719,135.349297 L458.935719,114.449297 L474.635719,114.449297 L474.635719,132.649297 C474.635719,137.449297 476.135719,139.949297 479.835719,139.949297 C483.635719,139.949297 485.035719,137.449297 485.035719,130.949297 L485.035719,128.549297 C485.035719,121.149297 484.335719,118.449297 478.635719,111.049297 L468.535719,98.149297 C461.835719,89.449297 459.835719,82.749297 459.835719,72.349297 L459.835719,68.949297 C459.835719,55.049297 466.835719,48.649297 479.335719,48.649297 L482.135719,48.649297 Z" id="Path" fill="#202020" fill-rule="nonzero" transform="translate(480.335719, 101.849297) rotate(5.000000) translate(-480.335719, -101.849297) "></path>
        <polygon id="Path" fill="#202020" fill-rule="nonzero" points="216.44525 228.88837 232.24525 227.18837 232.24525 198.68837 246.14525 137.78837 231.84525 137.78837 224.84525 176.68837 217.54525 137.78837 202.14525 137.78837 216.44525 198.58837"></polygon>
        <polygon id="Path" fill="#202020" fill-rule="nonzero" points="316.14525 227.58837 317.74525 242.58837 304.54525 243.98837 313.84525 332.58837 298.24525 334.18837 288.94525 245.58837 275.74525 246.98837 274.14525 231.98837"></polygon>
        <polygon id="Path" fill="#202020" fill-rule="nonzero" points="374.34525 221.48837 375.94525 236.48837 362.74525 237.88837 372.04525 326.48837 356.44525 328.08837 347.14525 239.48837 333.94525 240.88837 332.34525 225.88837"></polygon>
        <path d="M428.64525,297.08837 C430.14525,311.58837 426.34525,321.98837 411.14525,323.58837 L408.54525,323.88837 C393.54525,325.48837 387.14525,316.08837 385.64525,301.68837 L379.54525,244.08837 C378.04525,229.78837 382.44525,219.68837 397.24525,218.18837 L399.84525,217.88837 C415.14525,216.28837 421.04525,225.18837 422.54525,239.38837 L428.64525,297.08837 Z M406.44525,240.28837 C405.84525,234.88837 403.84525,232.58837 400.14525,232.88837 C396.14525,233.28837 394.84525,236.08837 395.44525,241.38837 L401.74525,300.98837 C402.24525,305.48837 403.84525,308.78837 408.24525,308.28837 C412.44525,307.88837 413.14525,304.28837 412.74525,299.78837 L406.44525,240.28837 Z" id="Shape" fill="#202020" fill-rule="nonzero"></path>
        <polygon id="Path" fill="#202020" fill-rule="nonzero" points="153.229976 331.002013 153.429976 288.502013 162.729976 331.602013 183.629976 333.102013 185.629976 241.302013 170.829976 242.902013 170.629976 310.802013 156.429976 244.402013 141.729976 245.902013 141.829976 313.602013 127.729976 247.402013 111.829976 249.102013 130.529976 329.402013"></polygon>
        <path d="M205.729976,334.602013 L205.629976,324.202013 L217.329976,323.002013 L219.929976,335.602013 L235.629976,336.702013 L212.229976,238.502013 L193.529976,240.502013 L191.929976,333.702013 L205.729976,334.602013 Z M205.829976,269.802013 L214.029976,307.702013 L205.829976,308.602013 L205.829976,269.802013 Z" id="Shape" fill="#202020" fill-rule="nonzero"></path>
        <polygon id="Path" fill="#202020" fill-rule="nonzero" points="253.229976 338.002013 247.029976 279.202013 268.329976 337.202013 281.129976 335.902013 270.229976 232.302013 255.929976 233.802013 261.729976 289.402013 242.429976 235.302013 228.229976 236.802013 238.729976 336.902013"></polygon>
        <path d="M48.2299759,391.002013 L63.7299759,392.102013 L62.0299759,416.102013 C61.3299759,427.302013 56.9299759,438.302013 41.6299759,437.302013 L38.1299759,437.102013 C22.2299759,436.002013 19.5299759,424.302013 20.2299759,413.802013 L24.7299759,350.302013 C25.4299759,339.702013 30.8299759,329.802013 45.0299759,330.802013 L48.6299759,331.102013 C65.9299759,332.302013 67.1299759,343.902013 66.4299759,354.102013 L65.1299759,372.702013 L49.6299759,371.602013 L50.9299759,353.302013 C51.2299759,348.802013 50.0299759,346.402013 46.1299759,346.102013 C42.2299759,345.802013 41.1299759,348.002013 40.7299759,352.602013 L36.4299759,414.302013 C36.1299759,418.902013 37.4299759,421.502013 40.9299759,421.802013 C44.7299759,422.102013 46.3299759,419.402013 46.6299759,415.202013 L48.2299759,391.002013 Z" id="Path" fill="#202020" fill-rule="nonzero"></path>
        <path d="M110.029976,417.502013 C109.029976,432.002013 103.429976,441.602013 88.2299759,440.502013 L85.5299759,440.302013 C70.4299759,439.202013 65.8299759,429.002013 66.8299759,414.402013 L70.8299759,356.602013 C71.8299759,342.202013 77.9299759,333.102013 92.7299759,334.102013 L95.4299759,334.302013 C110.829976,335.402013 115.029976,345.202013 114.029976,359.502013 L110.029976,417.502013 Z M98.0299759,357.702013 C98.4299759,352.302013 96.7299759,349.602013 93.1299759,349.402013 C89.1299759,349.102013 87.3299759,351.702013 87.0299759,357.002013 L82.8299759,416.802013 C82.5299759,421.302013 83.5299759,424.802013 88.0299759,425.202013 C92.2299759,425.502013 93.6299759,422.102013 93.9299759,417.602013 L98.0299759,357.702013 Z" id="Shape" fill="#202020" fill-rule="nonzero"></path>
        <polygon id="Path" fill="#202020" fill-rule="nonzero" points="121.029976 337.102013 141.329976 338.502013 145.029976 393.902013 156.529976 339.602013 175.429976 340.902013 168.129976 444.802013 153.329976 443.802013 158.029976 376.602013 143.829976 443.102013 137.529976 442.702013 132.629976 374.902013 127.929976 442.102013 113.829976 441.102013"></polygon>
        <polygon id="Path" fill="#202020" fill-rule="nonzero" points="217.129976 343.902013 216.029976 359.002013 195.929976 357.602013 194.029976 384.802013 209.829976 385.902013 208.729976 401.702013 192.929976 400.602013 190.829976 430.602013 211.729976 432.102013 210.629976 447.902013 173.929976 445.302013 181.229976 341.302013"></polygon>
        <path d="M236.329976,345.202013 L261.229976,346.902013 C274.329976,347.802013 277.329976,354.902013 276.629976,365.002013 L275.529976,380.902013 C274.929976,389.602013 270.829976,393.502013 266.729976,394.702013 C270.829976,396.402013 275.429976,400.202013 274.729976,410.602013 L273.129976,433.102013 C272.329976,444.102013 266.929976,451.802013 255.029976,450.902013 L229.029976,449.102013 L236.329976,345.202013 Z M248.129976,402.902013 L245.829976,435.602013 L250.529976,435.902013 C255.529976,436.302013 256.829976,434.002013 257.129976,429.302013 L258.429976,410.302013 C258.729976,406.002013 257.829976,403.502013 252.729976,403.202013 L248.129976,402.902013 Z M251.129976,360.402013 L249.229976,387.402013 L253.929976,387.702013 C258.129976,388.002013 259.629976,385.102013 259.929976,380.802013 L260.829976,367.702013 C261.129976,363.502013 260.129976,361.102013 255.829976,360.802013 L251.129976,360.402013 Z" id="Shape" fill="#202020" fill-rule="nonzero"></path>
        <path d="M302.029976,434.602013 L290.429976,433.802013 L287.129976,453.202013 L273.029976,452.202013 L293.029976,349.202013 L311.729976,350.502013 L318.029976,455.402013 L302.829976,454.302013 L302.029976,434.602013 Z M293.229976,418.402013 L301.429976,419.002013 L299.929976,380.302013 L293.229976,418.402013 Z" id="Shape" fill="#202020" fill-rule="nonzero"></path>
        <path d="M515.729976,445.802013 C514.729976,460.302013 509.129976,469.902013 493.929976,468.802013 L491.229976,468.602013 C476.129976,467.502013 471.529976,457.302013 472.529976,442.702013 L476.529976,384.902013 C477.529976,370.502013 483.629976,361.402013 498.429976,362.402013 L501.129976,362.602013 C516.529976,363.702013 520.729976,373.502013 519.729976,387.802013 L515.729976,445.802013 Z M503.729976,386.102013 C504.129976,380.702013 502.429976,378.002013 498.829976,377.802013 C494.829976,377.502013 493.029976,380.102013 492.729976,385.402013 L488.529976,445.202013 C488.229976,449.702013 489.229976,453.202013 493.729976,453.602013 C497.929976,453.902013 499.329976,450.502013 499.629976,446.002013 L503.729976,386.102013 Z" id="Shape" fill="#202020" fill-rule="nonzero"></path>
        <path d="M332.179638,456.76045 L353.979638,456.06045 C360.179638,452.36045 362.379638,444.76045 362.879638,437.16045 L364.579638,413.16045 L349.079638,412.06045 L347.379638,436.36045 C347.079638,440.56045 345.479638,443.26045 341.679638,442.96045 C338.179638,442.66045 336.879638,440.06045 337.179638,435.46045 L341.479638,373.76045 C341.879638,369.16045 342.979638,366.96045 346.879638,367.26045 C350.779638,367.56045 351.979638,369.96045 351.679638,374.46045 L350.379638,392.76045 L365.879638,393.86045 L367.179638,375.26045 C367.879638,365.06045 366.679638,353.46045 349.379638,352.26045 L345.779638,351.96045 C331.579638,350.96045 326.179638,360.86045 325.479638,371.46045 L321.079638,434.86045 C320.479638,443.56045 322.279638,453.26045 332.179638,456.76045 Z" id="Path" fill="#202020" fill-rule="nonzero"></path>
        <polygon id="Path" fill="#202020" fill-rule="nonzero" points="382.579638 455.06045 385.479638 414.76045 394.179638 454.66045 409.979638 454.06045 399.379638 405.16045 417.379638 357.86045 401.979638 356.76045 386.679638 397.56045 389.579638 355.96045 373.779638 354.86045 366.679638 455.56045"></polygon>
        <polygon id="Path" fill="#202020" fill-rule="nonzero" points="433.179638 359.06045 432.079638 374.16045 445.379638 375.06045 439.979638 453.06045 455.679638 452.46045 460.979638 376.16045 474.279638 377.06045 475.379638 361.96045"></polygon>
        <polygon id="Path" fill="#202020" fill-rule="nonzero" points="95.5796379 474.86045 115.879638 474.16045 125.379638 528.86045 131.079638 473.66045 149.979638 472.96045 153.579638 577.06045 138.779638 577.66045 136.379638 510.36045 129.179638 577.96045 122.879638 578.16045 110.879638 511.16045 113.279638 578.46045 99.1796379 578.96045"></polygon>
        <path d="M201.479638,552.16045 C201.979638,566.76045 197.479638,576.86045 182.179638,577.36045 L179.479638,577.46045 C164.379638,577.96045 158.679638,568.26045 158.179638,553.66045 L156.179638,495.76045 C155.779638,481.36045 160.879638,471.66045 175.679638,471.16045 L178.379638,471.06045 C193.779638,470.56045 198.979638,479.86045 199.479638,494.16045 L201.479638,552.16045 Z M183.379638,493.96045 C183.179638,488.46045 181.279638,486.06045 177.679638,486.16045 C173.579638,486.26045 172.179638,489.06045 172.379638,494.36045 L174.479638,554.26045 C174.679638,558.76045 175.979638,562.16045 180.479638,562.06045 C184.679638,561.96045 185.679638,558.36045 185.479638,553.86045 L183.379638,493.96045 Z" id="Shape" fill="#202020" fill-rule="nonzero"></path>
        <polygon id="Path" fill="#202020" fill-rule="nonzero" points="241.079638 469.86045 241.579638 483.56045 221.379638 559.46045 245.279638 558.66045 245.779638 573.86045 205.379638 575.26045 204.879638 561.16045 224.779638 485.26045 203.679638 485.96045 203.179638 471.16045"></polygon>
        <polygon id="Path" fill="#202020" fill-rule="nonzero" points="245.979638 469.66045 281.979638 468.36045 282.479638 483.46045 262.379638 484.16045 263.379638 511.56045 279.379638 510.96045 279.979638 526.76045 263.979638 527.36045 265.579638 573.16045 249.779638 573.76045"></polygon>
        <polygon id="Path" fill="#202020" fill-rule="nonzero" points="321.979638 466.96045 322.479638 482.06045 302.379638 482.76045 303.379638 510.06045 319.179638 509.46045 319.779638 525.26045 303.979638 525.86045 305.079638 555.96045 326.079638 555.26045 326.679638 571.06045 289.879638 572.36045 286.279638 468.26045"></polygon>
        <path d="M348.779638,465.06045 C361.779638,464.56045 366.979638,470.16045 367.479638,482.46045 L368.079638,499.56045 L352.779638,500.06045 L352.279638,485.06045 C352.179638,481.56045 351.379638,478.96045 347.579638,479.06045 C343.779638,479.16045 343.079638,481.56045 343.179638,486.46045 L343.279638,488.46045 C343.479638,494.36045 344.679638,497.56045 350.279638,504.16045 L360.779638,516.86045 C368.279638,525.86045 370.679638,531.06045 371.079638,542.86045 L371.179638,546.26045 C371.679638,561.56045 365.479638,570.86045 351.579638,571.36045 L348.479638,571.46045 C335.879638,571.86045 328.979638,565.26045 328.479638,552.36045 L327.779638,531.56045 L343.479638,531.06045 L344.079638,549.26045 C344.279638,554.06045 345.879638,556.46045 349.479638,556.36045 C353.279638,556.26045 354.579638,553.66045 354.379638,547.26045 L354.279638,544.86045 C353.979638,537.46045 353.179638,534.86045 347.279638,527.56045 L336.779638,515.06045 C329.779638,506.66045 327.579638,499.96045 327.179638,489.66045 L327.079638,486.26045 C326.579638,472.36045 333.379638,465.76045 345.779638,465.26045 L348.779638,465.06045 Z" id="Path" fill="#202020" fill-rule="nonzero"></path>
        <polygon id="Path" fill="#202020" fill-rule="nonzero" points="412.179638 463.86045 412.679638 478.96045 399.379638 479.46045 402.479638 568.46045 386.779638 568.96045 383.679638 479.96045 370.379638 480.46045 369.879638 465.36045"></polygon>
        <path d="M428.679638,546.06045 L428.079638,529.26045 C427.779638,520.46045 428.279638,517.76045 432.279638,510.36045 L436.079638,503.36045 C438.979638,498.26045 438.979638,495.46045 438.779638,489.66045 L438.479638,482.06045 C438.379638,478.16045 437.279638,476.66045 434.279638,476.76045 C431.279638,476.86045 430.579638,478.46045 430.679638,482.36045 L431.279638,499.16045 L416.279638,499.66045 L415.679638,482.86045 C415.279638,471.26045 417.879638,462.36045 432.279638,461.86045 L435.379638,461.76045 C449.779638,461.26045 454.279638,468.36045 454.679638,480.56045 L455.079638,490.96045 C455.279638,497.96045 453.979638,502.76045 449.479638,509.96045 L445.079638,516.56045 C441.079638,522.76045 440.779638,525.36045 441.079638,533.56045 L441.479638,545.76045 L428.679638,546.06045 Z M443.079638,566.96045 L428.479638,567.46045 L427.879638,549.56045 L442.479638,549.06045 L443.079638,566.96045 Z" id="Shape" fill="#202020" fill-rule="nonzero"></path>
        <path d="M194.079582,127.512026 L209.279582,127.512026 L204.979582,25.3120261 L186.179582,23.7120261 L164.479582,126.412026 L178.479582,127.612026 L182.179582,108.212026 L193.779582,109.212026 L194.079582,127.512026 Z M185.279582,92.9120261 L192.679582,54.9120261 L193.479582,93.6120261 L185.279582,92.9120261 Z" id="Shape" fill="#202020" fill-rule="nonzero"></path>
        <polygon id="Path" fill="#202020" fill-rule="nonzero" points="216.879582 127.512026 232.579582 127.512026 239.979582 43.6120261 253.179582 44.7120261 254.579582 29.7120261 212.379582 26.0120261 211.079582 41.1120261 224.379582 42.2120261"></polygon>
        <polygon id="Path" fill="#202020" fill-rule="nonzero" points="278.479582 127.512026 283.579582 69.3120261 286.879582 127.512026 296.079582 127.512026 308.979582 71.5120261 304.079582 127.512026 318.979582 127.512026 326.979582 36.0120261 308.179582 34.4120261 295.679582 88.5120261 292.879582 33.1120261 272.679582 31.3120261 264.379582 127.512026"></polygon>
        <path d="M360.879582,39.0120261 L342.179582,37.4120261 L323.079582,127.612026 L337.079582,127.612026 L338.179582,122.012026 L349.779582,123.012026 L350.179582,142.712026 L365.379582,144.012026 L360.879582,39.0120261 Z M341.179582,106.512026 L348.579582,68.5120261 L349.379582,107.212026 L341.179582,106.512026 Z" id="Shape" fill="#202020" fill-rule="nonzero"></path>
        <path d="M262.679582,224.012026 C262.279582,222.812026 262.079582,221.312026 262.079582,219.712026 L262.079582,159.812026 C262.079582,154.512026 263.579582,151.812026 267.679582,151.812026 C271.379582,151.812026 273.179582,154.312026 273.179582,159.812026 L273.079582,159.812026 L273.079582,219.712026 C273.079582,220.912026 272.979582,221.912026 272.779582,222.912026 L289.179582,221.212026 C289.179582,220.312026 289.279582,219.512026 289.279582,218.612026 L289.279582,160.512026 C289.279582,146.212026 284.379582,136.712026 268.979582,136.712026 L266.279582,136.712026 C251.479582,136.712026 245.979582,146.212026 245.979582,160.612026 L245.979582,218.612026 C245.979582,221.112026 246.179582,223.512026 246.479582,225.712026 L262.679582,224.012026 Z" id="Path" fill="#202020" fill-rule="nonzero"></path>
        <polygon id="Path" fill="#202020" fill-rule="nonzero" points="336.879582 216.212026 336.879582 137.712026 320.779582 137.712026 320.779582 217.912026"></polygon>
        <path d="M310.579582,219.012026 L310.579582,137.712026 L294.479582,137.712026 L294.479582,219.212026 C294.479582,219.712026 294.479582,220.212026 294.479582,220.612026 L310.579582,219.012026 Z" id="Path" fill="#202020" fill-rule="nonzero"></path>
    </g>
</svg>