<?xml version="1.0" standalone="no"?>
<!DOCTYPE svg PUBLIC "-//W3C//DTD SVG 20010904//EN"
 "http://www.w3.org/TR/2001/REC-SVG-20010904/DTD/svg10.dtd">
<svg version="1.0" xmlns="http://www.w3.org/2000/svg"
 width="260.000000pt" height="260.000000pt" viewBox="0 0 260.000000 260.000000"
 preserveAspectRatio="xMidYMid meet">
<metadata>
Created by potrace 1.11, written by Peter Selinger 2001-2013
</metadata>
<g transform="translate(0.000000,260.000000) scale(0.100000,-0.100000)"
fill="#000000" stroke="none">
<path d="M0 1300 l0 -1300 1300 0 1300 0 0 1300 0 1300 -1300 0 -1300 0 0
-1300z m1218 495 c69 -21 131 -70 167 -133 17 -28 32 -51 35 -52 3 0 17 23 32
50 56 100 171 156 307 148 133 -8 225 -68 277 -180 l29 -63 3 -272 4 -273 64
0 65 0 -3 -107 -3 -108 -202 -3 -202 -2 -3 337 c-3 326 -4 339 -25 379 -32 60
-66 79 -139 78 -76 -1 -125 -28 -157 -88 -20 -38 -22 -56 -25 -263 l-3 -223
66 0 66 0 -3 -107 -3 -108 -202 -3 -202 -2 -3 337 c-3 326 -4 339 -25 379 -32
60 -66 79 -139 78 -76 -1 -125 -28 -157 -88 -20 -38 -22 -56 -25 -263 l-3
-223 90 0 91 0 0 -110 0 -110 -295 0 -295 0 0 110 0 110 65 0 65 0 0 280 0
280 -65 0 -65 0 0 105 0 105 205 0 205 0 0 -67 0 -67 35 41 c65 76 145 111
256 112 36 1 88 -6 117 -14z"/>
</g>
</svg>
