<?xml version="1.0" encoding="UTF-8"?>
<svg width="100px" height="100px" viewBox="0 0 100 100" version="1.1" xmlns="http://www.w3.org/2000/svg" xmlns:xlink="http://www.w3.org/1999/xlink">
    <title>chapter-number</title>
    <g id="chapter-number" stroke="none" stroke-width="1" fill="none" fill-rule="evenodd">
        <polygon id="Polygon" fill="#202020" points="50 0 79.3892626 9.54915028 97.5528258 34.5491503 97.5528258 65.4508497 79.3892626 90.4508497 50 100 20.6107374 90.4508497 2.44717419 65.4508497 2.44717419 34.5491503 20.6107374 9.54915028"></polygon>
        <path d="M35.0710997,32.3686851 L43.0898234,33.9184581 L47.5403914,39.2657416 L49.9327208,47.5862573 L48.8349936,58.216048 L42.2166313,66 L32.4498963,66 L26.5506972,59.3042898 L24,48.9147112 L26.8723139,37.1205665 L35.0710997,32.3686851 Z M65.2673301,32 L69.0128361,32.8825771 L69.0128361,62.0605214 L76,62.0605214 L76,66 L57.4292106,66 L57.4292106,62.0605214 L65.0585233,62.0605214 L65.0585233,41.1944559 L64.9066638,41.4902677 L63.1385853,42.5768901 L58.4472116,42.5768901 L58.4472116,38.6379513 L61.9182858,38.6379513 L65.2673301,32 Z M35.7794157,36.5159877 L30.3184398,39.6792303 L28.0709192,48.9114724 L30.1638685,57.4322548 L34.2407536,62.0605214 L40.3813008,62.0605214 L45.0216932,56.6004191 L45.920376,47.9387483 L43.9657273,41.1442543 L40.9453504,37.5146223 L35.7794157,36.5159877 Z" id="Combined-Shape" fill="#FFFFFF"></path>
    </g>
</svg>