<?xml version="1.0" encoding="UTF-8"?>
<svg width="24px" height="24px" viewBox="0 0 24 24" version="1.1" xmlns="http://www.w3.org/2000/svg" xmlns:xlink="http://www.w3.org/1999/xlink">
    <title>icon-m-logo</title>
    <g id="icon-m-logo" stroke="none" stroke-width="1" fill="none" fill-rule="evenodd">
        <path d="M19.0876236,14.5971813 L20.2780193,14.5971813 L20.2780193,16.5816204 L16.5269882,16.5816204 L16.5269882,11.4382783 C16.5269882,9.85962085 16.0108127,9.2529336 14.9987039,9.2529336 C13.7678238,9.2529336 13.2718905,10.1439062 13.2718905,11.4184259 L13.2718905,14.5971813 L14.4630648,14.5971813 L14.4630648,16.5816204 L10.7112552,16.5816204 L10.7112552,11.4382783 C10.7112552,9.85962085 10.1950797,9.2529336 9.18297081,9.2529336 C7.95209076,9.2529336 7.45615743,10.1439062 7.45615743,11.4184259 L7.45615743,14.5971813 L9.16350718,14.5971813 L9.16350718,16.5816204 L3.70434783,16.5816204 L3.70434783,14.5971813 L4.89552207,14.5971813 L4.89552207,9.43478095 L3.70434783,9.43478095 L3.70434783,7.45034187 L7.45615743,7.45034187 L7.45615743,8.8272996 C7.99179657,7.85612353 8.92449379,7.26849451 10.175616,7.26849451 C11.4656655,7.26849451 12.6560612,7.89662229 13.0936036,9.23228717 C13.589537,8.01732447 14.6016458,7.26849451 16.0108127,7.26849451 C17.6185087,7.26849451 19.0876236,8.2611111 19.0876236,10.4266034 L19.0876236,14.5971813 Z" id="Path" fill="#202020"></path>
    </g>
</svg>