<?xml version="1.0" encoding="UTF-8"?>
<svg width="25px" height="25px" viewBox="0 0 25 25" version="1.1" xmlns="http://www.w3.org/2000/svg" xmlns:xlink="http://www.w3.org/1999/xlink">
    <title>icon-zilla-mail</title>
    <g id="icon-zilla-mail" stroke="none" stroke-width="1" fill="none" fill-rule="evenodd">
        <path d="M22.089,4.588 C21.9711917,4.64133084 21.8648837,4.71707106 21.776,4.811 L13.236,13.783 C13.0467952,13.9813408 12.7844677,14.0933192 12.510356,14.0927542 C12.2362444,14.092185 11.9743825,13.979122 11.786,13.78 L3.316,4.813 C3.21735002,4.70854834 3.09727001,4.62667561 2.964,4.573 C3.134,4.525 3.314,4.49999872 3.5,4.49999872 L21.5,4.49999872 C21.6996248,4.49977417 21.8981587,4.52943627 22.089,4.588 Z M23.412,5.911 C23.4705637,6.10184135 23.5002258,6.30037515 23.5000013,6.5 L23.5000013,18.5 C23.5002258,18.6996248 23.4705637,18.8981587 23.412,19.089 C23.3621774,18.9787208 23.2927138,18.8784221 23.207,18.793 L17.207,12.793 C17.1611293,12.7469114 17.1108938,12.7053834 17.057,12.669 L23.224,6.189 C23.3019098,6.10760979 23.365475,6.01361443 23.412,5.911 L23.412,5.911 Z M22.089,20.411 C21.8982102,20.4699025 21.6996753,20.4999019 21.5,20.5000013 L3.5,20.5000013 C3.30037515,20.5002258 3.10184135,20.4705637 2.911,20.412 C3.02127922,20.3621774 3.12157787,20.2927138 3.207,20.207 L9.207,14.207 C9.247,14.167 9.284,14.123 9.317,14.078 L10.331,15.153 C10.8964002,15.7515154 11.6829362,16.0913502 12.5062805,16.092863 C13.3296247,16.0943758 14.1174042,15.7574336 14.685,15.161 L15.698,14.097 C15.727,14.136 15.758,14.172 15.793,14.207 L21.793,20.207 C21.8784221,20.2927138 21.9787208,20.3621774 22.089,20.412 L22.089,20.411 Z M1.589,19.089 C1.53009747,18.8982102 1.50009814,18.6996753 1.5,18.5 L1.5,6.5 C1.5,6.249 1.546,6.008 1.631,5.786 C1.674,5.931 1.751,6.069 1.863,6.186 L7.969,12.652 C7.907,12.692 7.847,12.738 7.793,12.792 L1.793,18.792 C1.70718637,18.87772 1.63771752,18.9783651 1.588,19.089 L1.589,19.089 Z" id="Shape" fill="#FFFFFF"></path>
    </g>
</svg>