<?xml version="1.0" encoding="UTF-8"?>
<svg width="162px" height="60px" viewBox="0 0 162 60" version="1.1" xmlns="http://www.w3.org/2000/svg" xmlns:xlink="http://www.w3.org/1999/xlink">
  <title>logo-full</title>
  <defs>
    <rect id="logo-path-1" x="0" y="-0.00317499515" width="60" height="61.7177734"></rect>
    <rect id="logo-path-3" x="-0.000439650375" y="0.81401584" width="97.4895603" height="60"></rect>
  </defs>
  <g id="logo-full" stroke="none" stroke-width="1" fill="none" fill-rule="evenodd">
    <g id="logo-square" transform="translate(0.000000, -0.996825)">
      <g id="logo-m" transform="translate(0.000000, 1.000000)">
        <rect id="backdrop" fill="#202020" x="0" y="0" width="60" height="60"></rect>
        <path d="M47.719059,36.4929532 L50.6950482,36.4929532 L50.6950482,41.454051 L41.3174706,41.454051 L41.3174706,28.5956957 C41.3174706,24.6490521 40.0270318,23.132334 37.4967597,23.132334 C34.4195596,23.132334 33.1797263,25.3597656 33.1797263,28.5460649 L33.1797263,36.4929532 L36.1576619,36.4929532 L36.1576619,41.454051 L26.7781379,41.454051 L26.7781379,28.5956957 C26.7781379,24.6490521 25.4876991,23.132334 22.957427,23.132334 C19.8802269,23.132334 18.6403936,25.3597656 18.6403936,28.5460649 L18.6403936,36.4929532 L22.908768,36.4929532 L22.908768,41.454051 L9.26086957,41.454051 L9.26086957,36.4929532 L12.2388052,36.4929532 L12.2388052,23.5869524 L9.26086957,23.5869524 L9.26086957,18.6258547 L18.6403936,18.6258547 L18.6403936,22.068249 C19.9794914,19.6403088 22.3112345,18.1712363 25.43904,18.1712363 C28.6641638,18.1712363 31.640153,19.7415557 32.7340091,23.0807179 C33.9738424,20.0433112 36.5041145,18.1712363 40.0270318,18.1712363 C44.0462717,18.1712363 47.719059,20.6527778 47.719059,26.0665086 L47.719059,36.4929532 Z" id="Path" fill="#FFFFFF"></path>
      </g>
      <mask id="logo-mask-2" fill="white">
        <use xlink:href="#logo-path-1"></use>
      </mask>
      <use id="logo-mask" fill="#D8D8D8" xlink:href="#logo-path-1"></use>
      <g id="logo-wheel" mask="url(#logo-mask-2)">
        <g transform="translate(0.000000, 1.000000)">
          <polygon id="backdrop" fill="#202020" points="5.68434189e-14 59.996825 60.1288506 59.996825 60.1288506 8.52651283e-14 5.68434189e-14 8.52651283e-14"></polygon>
          <path d="M33.7184012,5.9575609 L34.1363014,6.01682747 L34.4937441,6.86878451 C35.6869873,9.62679696 38.4097031,11.3910359 41.410312,11.3910359 C42.2842963,11.3910359 43.1402495,11.2322862 43.9548368,10.934895 L44.8086686,10.6173954 L45.1268668,10.8745701 C46.8568043,12.223943 48.3862769,13.7902739 49.6993747,15.5555712 L49.9369627,15.8931791 L49.5795201,16.7451361 C48.1094445,20.4344804 49.7789243,24.6191241 53.3756244,26.2849382 L54.211425,26.6617043 L54.2506695,27.078687 C54.50841,29.2599086 54.4882574,31.4612386 54.1509674,33.6234103 L54.0905097,34.0393347 L53.2366779,34.3959925 C49.5795201,35.9633817 47.7912463,40.1078087 49.1626805,43.8363114 L49.4808786,44.6893267 L49.2210168,45.0057679 C47.8697352,46.7308486 46.3010181,48.2590796 44.5318362,49.5671776 L44.1934854,49.8063606 L43.338593,49.4486445 C42.463548,49.0919867 41.5492585,48.9131286 40.5957246,48.9131286 C37.6746653,48.8930203 35.0102858,50.5789427 33.7576456,53.2364137 L33.3811111,54.0693207 L32.9632108,54.1095373 C32.0096769,54.2280705 31.0359904,54.2873371 30.0612433,54.2873371 C28.8489082,54.2873371 27.6164206,54.1878539 26.4242381,54.0100542 L26.0073984,53.9507876 L25.6499558,53.0977722 C24.4567126,50.3609264 21.7329361,48.5765791 18.7323272,48.5765791 C17.8583429,48.5765791 17.0034504,48.7342705 16.1888631,49.0316618 L15.3339706,49.3491613 L15.0157724,49.0919867 C13.2868956,47.7426137 11.7563623,46.1561745 10.4443251,44.4109855 L10.1865846,44.093486 L10.5440272,43.2404706 C12.0141029,39.5521846 10.344623,35.3474327 6.74792287,33.6816185 L5.9121223,33.3059108 L5.87287786,32.8889281 C5.61407667,30.7077064 5.65438177,28.5063764 5.97257996,26.3452631 L6.03197695,25.9282804 L6.88686941,25.5705643 C10.5440272,24.0042333 12.332301,19.8788563 10.9608669,16.151412 L10.6426687,15.2983966 L10.9025305,14.9607888 C12.2527515,13.2357081 13.8225292,11.7085354 15.5917111,10.3993791 L15.9300619,10.1623128 L16.7838937,10.5189706 C17.6599993,10.8745701 18.5933807,11.0534281 19.5278227,11.0534281 C22.4488821,11.0735364 25.1334141,9.38761399 26.3648411,6.73014305 L26.7424362,5.89723599 L27.1603365,5.85807772 C29.3463581,5.59984478 31.5525322,5.61995308 33.7184012,5.9575609 Z M27.7161227,7.2656589 L27.6768783,7.34609211 C26.205742,10.5189706 23.0067895,12.5604925 19.4875176,12.5414425 C18.3547321,12.5414425 17.2420991,12.3234262 16.1888631,11.9064435 L16.1093135,11.8672852 C14.6986349,12.9182086 13.4056896,14.1479901 12.2930566,15.5365213 L12.332301,15.6158961 C13.9625364,20.0778227 11.8157593,25.0551567 7.44371624,26.9389872 L7.36416669,26.9792038 C7.12551805,28.7434428 7.1053655,30.5288484 7.28355649,32.3131956 L7.36416669,32.3534122 C11.6969653,34.3568342 13.7037352,39.3944931 11.9345533,43.8162031 L11.8953089,43.8955779 C12.9686974,45.2841091 14.220277,46.5530489 15.6118637,47.6833472 L15.6914132,47.6632388 C16.6650997,47.2875311 17.6992438,47.108673 18.7524798,47.108673 C22.34918,47.108673 25.6690477,49.2898947 27.0404819,52.5432064 L27.0606344,52.6215229 C28.8298163,52.8596476 30.6180902,52.8797559 32.3862114,52.7008978 L32.4265165,52.6215229 C33.8976528,49.4486445 37.0976659,47.4060642 40.6158772,47.4261725 C41.7486627,47.4261725 42.8612957,47.6441889 43.9155924,48.0601132 L43.9951419,48.0992715 C45.4058205,47.0091898 46.6977052,45.7593001 47.8304907,44.3718272 L47.8103382,44.2924523 C46.1610109,39.8305258 48.307788,34.8521334 52.6999836,32.968303 L52.7795332,32.9280864 C53.0181818,31.1627891 53.0372737,29.3784418 52.8590827,27.6142028 L52.7795332,27.5739862 C48.4064294,25.5906726 46.4198121,20.5741802 48.1879333,16.151412 L48.2282385,16.0720371 C47.1346974,14.6633976 45.9032704,13.3743496 44.5116836,12.2641596 L44.4321341,12.3033179 C43.4584476,12.6599757 42.4243035,12.8578837 41.3710675,12.8578837 C37.7934593,12.8578837 34.4544996,10.6777204 33.0830654,7.42546699 L33.043821,7.34609211 C31.2746391,7.10796747 29.4853046,7.08680084 27.7161227,7.2656589 Z M30.0416211,12.5610216 C34.4539693,12.5218634 39.0254166,14.3665356 42.3845288,17.6579472 C45.684244,20.9102006 47.5319148,25.3530771 47.4926703,29.9737534 C47.4926703,39.5717637 39.6819655,47.3653185 30.0416211,47.3864851 C20.4023374,47.3653185 12.6107245,39.5929303 12.5916326,29.9737534 C12.5916326,20.375743 20.4224899,12.6202882 30.0416211,12.5610216 Z M30.0416211,14.0278694 C21.2179854,14.0278694 14.0818607,21.1483252 14.0627218,29.9536451 C14.0415556,38.7600233 21.1967722,45.8783624 30.0214686,45.8985131 C38.8472256,45.918579 45.9812289,38.7790733 46.0024421,29.9737534 C46.0024421,25.7499515 44.3329623,21.702891 41.3312928,18.7088706 C38.3497758,15.7137918 34.2747176,14.0278694 30.0416211,14.0278694 Z M23.3525649,18.0939799 L30.6594559,18.1066798 L33.8796216,23.6914963 L40.3125282,23.7094879 L43.9590795,30.0224366 L40.2987396,36.331152 L33.8393165,36.3237437 L30.6149082,41.8704602 L23.3016532,41.8704602 L19.655102,35.5522199 L22.8996628,29.9748117 C22.8996628,29.9748117 19.701771,24.4016369 19.6985891,24.3889369 C19.6964677,24.3698869 23.3525649,18.0939799 23.3525649,18.0939799 L23.3525649,18.0939799 Z M21.8071824,36.2867021 L24.158667,40.3782125 L28.88391,40.3930291 L26.5324254,36.3004604 L25.3328183,36.2972854 L21.8071824,36.2867021 Z M30.2023112,31.4850511 L27.8264314,35.5606865 L30.1768553,39.6521969 L32.5516745,35.5755031 L31.7784529,34.2282469 L30.2023112,31.4850511 Z M31.4952565,30.7442189 L32.8518414,33.1074736 L33.8446198,34.8367876 L38.5698628,34.8505459 L37.6767866,33.2926816 L36.2215602,30.7590355 L31.4952565,30.7442189 Z M24.1894261,30.7219939 L21.8124857,34.7986877 L25.3413036,34.809271 L26.5377287,34.8135043 L26.9142633,34.1668636 L28.9136085,30.7368105 L24.1894261,30.7219939 Z M39.8893246,25.9415095 L38.0002881,29.1852962 L37.5145055,30.0192616 L38.4701607,31.6840174 L39.8638688,34.1107721 L42.2397486,30.0340783 L39.8893246,25.9415095 Z M33.8753789,25.180569 L31.4994991,29.2562045 L36.2258029,29.2720794 L38.600622,25.1943273 L33.8753789,25.180569 Z M21.8411235,25.1424691 L24.1926081,29.2350378 L25.3922153,29.2382128 L28.9178512,29.2487961 L26.9078993,25.7510098 L26.5663666,25.1572857 L21.8411235,25.1424691 Z M30.2362523,20.3397598 L27.8603725,24.4175119 L30.2118571,28.5090223 L32.099833,25.2662939 L32.5856156,24.4323285 L30.2362523,20.3397598 Z M24.2233673,19.5788193 L21.8464268,23.6544547 L26.5716699,23.6703297 L28.6261695,20.1439684 L28.9475497,19.5925776 L24.2233673,19.5788193 Z" id="wheel" fill="#FEFEFE"></path>
        </g>
      </g>
    </g>
    <g id="logo-text" transform="translate(64.510440, -0.814016)">
      <mask id="logo-mask-4" fill="white">
        <use xlink:href="#logo-path-3"></use>
      </mask>
      <g id="logo-mask"></g>
      <polygon id="backdrop" fill="#202020" mask="url(#logo-mask-4)" points="0 60.8140158 87.139634 60.8140158 87.139634 33 0 33"></polygon>
      <path d="M38.0031519,38.9703667 L38.0031519,42.9285273 L42.8790087,42.9285273 L42.8790087,44.2207504 L38.0031519,44.2207504 L38.0031519,51.3941227 C38.0031519,52.2005715 38.1686149,52.8461538 38.499541,53.3308698 C38.8294065,53.816644 39.4074665,54.0611187 40.2337212,54.0611187 C40.7661728,54.0611187 41.2445307,53.9002522 41.6666737,53.5795777 C42.0888166,53.2589032 42.4006508,52.5942709 42.603237,51.5867391 L43.7879949,51.9709135 C43.4199457,54.2622017 42.1800334,55.4062583 40.0682581,55.4062583 C38.8750149,55.4062583 37.9798173,55.0591255 37.3837261,54.3627432 C36.7855135,53.6663609 36.4874678,52.731854 36.4874678,51.5581641 L36.4874678,44.2207504 L34.477516,44.2207504 L34.477516,42.9285273 L36.4874678,42.9285273 L36.4874678,38.9703667 L38.0031519,38.9703667 Z M68.4662795,42.6807719 C71.2940007,42.6807719 72.7078613,44.0460198 72.7078613,46.7765156 L72.7078613,52.7126982 C72.7078613,53.6472051 73.0663646,54.1139294 73.7812499,54.1139294 C74.1492991,54.1139294 74.4515874,54.0504295 74.6912967,53.9223714 L74.7188739,55.021978 C74.3137015,55.2780943 73.8374649,55.4061524 73.286982,55.4061524 C71.890092,55.4061524 71.193238,54.5827704 71.193238,52.9328312 L71.193238,52.8788563 C70.8071575,53.538197 70.2513713,54.1245127 69.5269401,54.6378036 C68.8003876,55.1500362 67.9507984,55.4061524 66.9781727,55.4061524 C66.1699493,55.4061524 65.3479373,55.1637945 64.5131974,54.6790785 C63.6773968,54.1933043 63.2605572,53.3000723 63.2605572,51.9983243 C63.2605572,50.45951 63.8746797,49.4466865 65.105046,48.9609123 C66.3354123,48.4761964 67.6304789,48.2327801 68.9891852,48.2327801 C69.374205,48.2327801 69.7560428,48.2475967 70.1325773,48.274055 C70.5080512,48.3015716 70.8623118,48.3248549 71.193238,48.3428466 L71.193238,47.0516819 C71.193238,46.117175 70.9768632,45.3795178 70.546235,44.8387102 C70.1134854,44.2979027 69.3381425,44.0280282 68.2170243,44.0280282 C67.2995528,44.0280282 66.4732982,44.2111195 65.7382604,44.5783606 L65.2429319,46.7765156 L63.9754424,46.6114159 L64.4166773,43.890445 C64.9310977,43.469229 65.5505235,43.1623128 66.2760153,42.9696964 C67.0015072,42.7770801 67.7312417,42.6807719 68.4662795,42.6807719 Z M18.16201,42.6804544 C19.8325505,42.6804544 21.0862514,43.2265535 21.9220519,44.3166352 C22.7567918,45.4067169 23.1757528,46.64814 23.1757528,48.0409045 C23.1757528,48.4441289 23.1301444,48.9023865 23.0378669,49.4146191 L14.2778708,49.4146191 C14.3139333,50.8814668 14.6915285,52.0212901 15.4074744,52.8372639 C16.1234203,53.6521793 17.1342299,54.0606953 18.4377818,54.0606953 C20.3650021,54.0606953 21.559306,53.1812217 22.018572,51.421216 L23.2850008,51.7238989 C23.1015065,52.7504807 22.5870861,53.6204293 21.7428003,54.3348032 C20.8974538,55.0502355 19.7593649,55.4058349 18.3274731,55.4058349 C16.6198095,55.4058349 15.2515573,54.8565608 14.2227165,53.7580125 C13.1949363,52.6584058 12.6805159,51.1375831 12.6805159,49.1944861 C12.6805159,47.289489 13.1758444,45.7273914 14.1686228,44.5092516 C15.1592798,43.2900534 16.4904089,42.6804544 18.16201,42.6804544 Z M28.9461708,42.680666 C29.7904567,42.680666 30.5848915,42.8002575 31.3294752,43.0383822 C32.0729983,43.2765068 32.6733322,43.5336814 33.133659,43.8077893 L33.4094307,46.61131 L32.1419413,46.7764098 L31.8110152,44.7147796 C31.4259954,44.5136966 31.020823,44.3485968 30.5986801,44.2205387 C30.1765371,44.0924806 29.6896939,44.0279223 29.1381504,44.0279223 C28.2758333,44.0279223 27.5779186,44.1834971 27.045467,44.4946466 C26.5130154,44.8068545 26.2467895,45.3106204 26.2467895,46.0059443 C26.2467895,46.7033849 26.5034694,47.1933925 27.0178898,47.4770254 C27.5323102,47.7617166 28.1750705,47.9680913 28.9461708,48.0950911 C29.7172711,48.2242076 30.4841287,48.3808407 31.2467437,48.5628737 C32.008298,48.7459651 32.6457551,49.067698 33.1601755,49.5248973 C33.6745959,49.9831549 33.9323364,50.6975288 33.9323364,51.6690773 C33.9323364,52.8046672 33.4497358,53.7127159 32.486656,54.3900482 C31.5225155,55.0684388 30.3324543,55.4060466 28.9185936,55.4060466 C28.0552159,55.4060466 27.2056267,55.2832801 26.3708868,55.0366888 C25.5350863,54.7879809 24.8965686,54.5096396 24.4563944,54.1974318 L24.7873205,51.6129857 L26.0261721,51.7241106 L25.9158634,53.3729914 C26.7792412,53.831249 27.7624736,54.060907 28.8634393,54.060907 C29.7628795,54.060907 30.5753455,53.8809906 31.3018981,53.5243328 C32.0263293,53.1666167 32.3890752,52.6035842 32.3890752,51.8331187 C32.3890752,51.1007532 32.1281527,50.5789956 31.605247,50.2667878 C31.0812806,49.9556383 30.433217,49.7312719 29.6631774,49.5936888 C28.8910165,49.4561057 28.1241588,49.3047643 27.3626045,49.1396645 C26.5999895,48.9745648 25.9572292,48.6729402 25.4343235,48.2326742 C24.9103572,47.7934666 24.6494346,47.1055509 24.6494346,46.1721024 C24.6494346,44.9253876 25.0991547,44.0321556 25.9996556,43.4913481 C26.8980352,42.951599 27.8812676,42.680666 28.9461708,42.680666 Z M11.6812676,35.9471363 C12.2497816,35.9471363 12.7313216,35.9979363 13.126948,36.0984778 C13.5215137,36.1990193 13.9128975,36.4138606 14.2979173,36.7440601 L14.7391521,39.465031 L13.470602,39.6301307 L12.9763342,37.4859506 C12.6082849,37.3399009 12.1023498,37.266876 11.4606501,37.266876 C9.86223459,37.266876 9.06355714,38.348491 9.06355714,40.5106627 L9.06355714,42.9289507 L12.2869048,42.9289507 L12.2869048,44.2201154 L9.06355714,44.2201154 L9.06355714,53.8678673 L12.0387102,53.8678673 L12.0387102,55.1325737 L5.29078731,55.1325737 L5.29078731,53.8678673 L7.54893377,53.8678673 L7.54893377,44.2201154 L5.73096147,44.2201154 L5.73096147,42.9289507 L7.54893377,42.9289507 L7.54893377,40.5646376 C7.54893377,39.0999065 7.9710767,37.9632583 8.81642322,37.1568095 C9.66070907,36.3503607 10.6153036,35.9471363 11.6812676,35.9471363 Z M48.0267129,42.9282098 L48.0267129,53.8671265 L50.2859201,53.8671265 L50.2859201,55.1328912 L44.2263659,55.1328912 L44.2263659,53.8671265 L46.5120896,53.8671265 L46.5120896,44.2204329 L44.1977281,44.2204329 L44.1977281,42.9282098 L48.0267129,42.9282098 Z M55.0601656,42.9283157 L55.0601656,44.2205387 L52.6906498,44.2205387 L56.3541716,53.0163336 L56.518574,53.0163336 L59.9073847,44.2205387 L57.6757547,44.2205387 L57.6757547,42.9283157 L62.9928464,42.9283157 L62.9928464,44.2205387 L61.4230687,44.2205387 L56.9322316,55.132997 L55.7485344,55.132997 L51.0657177,44.2205387 L49.5786716,44.2205387 L49.5786716,42.9283157 L55.0601656,42.9283157 Z M79.1449046,36.2221967 L79.1449046,53.8677615 L81.4041117,53.8677615 L81.4041117,55.1324679 L75.3721347,55.1324679 L75.3721347,53.8677615 L77.6302812,53.8677615 L77.6302812,37.4858448 L75.3434969,37.4858448 L75.3434969,36.2221967 L79.1449046,36.2221967 Z M68.796145,49.38742 C67.8054879,49.38742 66.8996838,49.5387614 66.0829751,49.8403859 C65.2652057,50.1441271 64.8568514,50.8077011 64.8568514,51.8332246 C64.8568514,52.7126982 65.1421691,53.3043056 65.7106832,53.6069885 C66.280258,53.9086131 66.8318015,54.0610128 67.3642531,54.0610128 C68.2817246,54.0610128 69.136617,53.7445716 69.9257485,53.1116893 C70.71488,52.4798652 71.1380836,51.6596582 71.193238,50.6521264 L71.193238,49.5250031 C70.8442806,49.4879615 70.4666854,49.4562115 70.0636344,49.4286949 C69.6595227,49.4011783 69.2373798,49.38742 68.796145,49.38742 Z M18.0792785,44.0277107 C16.8489122,44.0277107 15.9441687,44.44046 15.3671693,45.2638421 C14.7880486,46.0893408 14.4348486,47.0513644 14.3065087,48.150971 L21.5773372,48.150971 C21.6696147,47.1794225 21.4299054,46.2502073 20.8613913,45.3601503 C20.2918165,44.47221 19.3647992,44.0277107 18.0792785,44.0277107 Z M48.0256523,37.348685 L48.0256523,39.5203817 L46.3190493,39.5203817 L46.3190493,37.348685 L48.0256523,37.348685 Z" id="text" fill="#FEFEFE" mask="url(#logo-mask-4)"></path>
      <polygon id="backdrop" fill="#202020" mask="url(#logo-mask-4)" points="-2.27373675e-13 28.6280317 97.4895603 28.6280317 97.4895603 0.81401584 -2.27373675e-13 0.81401584"></polygon>
      <path d="M26.7407392,20.2684811 L28.3624893,20.2684811 L28.3624893,22.9132521 L23.2522264,22.9132521 L23.2522264,16.0584375 C23.2522264,13.9544741 22.5490084,13.1459087 21.1701496,13.1459087 C19.4932452,13.1459087 18.8176043,14.3333569 18.8176043,16.0319793 L18.8176043,20.2684811 L20.4404151,20.2684811 L20.4404151,22.9132521 L15.3290916,22.9132521 L15.3290916,16.0584375 C15.3290916,13.9544741 14.6258736,13.1459087 13.2470148,13.1459087 C11.5701103,13.1459087 10.8944695,14.3333569 10.8944695,16.0319793 L10.8944695,20.2684811 L13.2204982,20.2684811 L13.2204982,22.9132521 L5.78314597,22.9132521 L5.78314597,20.2684811 L7.40595672,20.2684811 L7.40595672,13.3882666 L5.78314597,13.3882666 L5.78314597,10.7434957 L10.8944695,10.7434957 L10.8944695,12.5786429 C11.624204,11.2843032 12.8948754,10.5011377 14.5993571,10.5011377 C16.3568717,10.5011377 17.9786218,11.3382781 18.5747131,13.118392 C19.2503539,11.4991445 20.6292127,10.5011377 22.5490084,10.5011377 C24.7392726,10.5011377 26.7407392,11.8240524 26.7407392,14.7101229 L26.7407392,20.2684811 Z M36.3439605,20.5108391 C34.4517419,20.5108391 33.4780555,18.8926499 33.4780555,16.7876281 C33.4780555,14.4942233 34.5853851,13.172367 36.370477,13.172367 C38.0208649,13.172367 39.34563,14.2783236 39.34563,16.7336532 C39.34563,19.0545746 38.1555688,20.5108391 36.3439605,20.5108391 L36.3439605,20.5108391 Z M36.4256313,10.5011377 C32.0440423,10.5011377 29.8813553,13.4422415 29.8813553,17.0035278 C29.8813553,20.8897218 32.4767918,23.1831267 36.2357731,23.1831267 C40.1294582,23.1831267 42.9412695,20.7277971 42.9412695,16.8426614 C42.9412695,13.4422415 40.8061597,10.5011377 36.4256313,10.5011377 L36.4256313,10.5011377 Z M53.9021364,18.3804173 L56.659854,18.6502919 L55.9025423,22.9132521 L45.2482064,22.9132521 L44.8971277,21.0781049 L51.6026242,13.3882666 L47.7906099,13.3882666 L47.249673,15.2773887 L44.7348466,15.0064558 L45.1675962,10.7434957 L55.8760258,10.7434957 L56.1464943,12.5786429 L49.3869041,20.2684811 L53.3336223,20.2684811 L53.9021364,18.3804173 Z M59.2139248,22.9132521 L62.8647186,22.9132521 L62.8647186,18.5412838 L59.2139248,18.5412838 L59.2139248,22.9132521 Z M59.2139248,15.115464 L62.8647186,15.115464 L62.8647186,10.7434957 L59.2139248,10.7434957 L59.2139248,15.115464 Z M73.855284,4.34905544 L68.58274,22.9132521 L65.1483209,22.9132521 L70.4219256,4.34905544 L73.855284,4.34905544 Z M80.9415576,4.34905544 L75.667953,22.9132521 L72.2335339,22.9132521 L77.5060778,4.34905544 L80.9415576,4.34905544 Z M85.6243742,20.7002805 C84.5690169,20.7002805 84.1903611,20.0790397 84.1903611,19.2969326 C84.1903611,17.9750763 85.2732956,17.6247685 86.5163898,17.6247685 C87.0849039,17.6247685 87.706451,17.7052017 88.2739045,17.7856349 C88.1932943,19.8091652 86.8674685,20.7002805 85.6243742,20.7002805 L85.6243742,20.7002805 Z M93.1147596,20.7807137 C92.9249013,20.8346886 92.7626202,20.8622052 92.6013998,20.8622052 C92.0328857,20.8622052 91.7624173,20.6198472 91.7624173,19.9181733 L91.7624173,14.6296897 C91.7624173,11.8505106 89.5445759,10.5011377 86.9215622,10.5011377 C84.9211563,10.5011377 83.8392824,10.744554 81.7020513,11.6070944 L81.227936,14.4063817 L84.0132308,14.703773 L84.4067358,13.3342917 C84.9741893,13.0379588 85.5427034,12.9829256 86.2724379,12.9829256 C88.2463273,12.9829256 88.2739045,14.467765 88.2739045,15.7081298 L88.2739045,16.1134708 C87.6523574,16.0319793 86.9491394,16.005521 86.2724379,16.005521 C83.4871431,16.005521 80.5936609,16.7071949 80.5936609,19.7022736 C80.5936609,22.2380364 82.5951275,23.1831267 84.3526422,23.1831267 C86.3275922,23.1831267 87.5706865,21.9956785 88.2739045,20.7542554 C88.4361856,22.2380364 89.3292618,23.1831267 90.9510119,23.1831267 C91.7083236,23.1831267 92.4921518,22.967227 93.1423367,22.6158609 L93.1147596,20.7807137 Z" id="text" fill="#FEFEFE" mask="url(#logo-mask-4)"></path>
    </g>
  </g>
</svg>