<?xml version="1.0" encoding="UTF-8"?>
<svg width="99px" height="64px" viewBox="0 0 99 64" version="1.1" xmlns="http://www.w3.org/2000/svg" xmlns:xlink="http://www.w3.org/1999/xlink">
  <title>number-06</title>
  <g id="number-06" stroke="none" stroke-width="1" fill="none" fill-rule="evenodd">
    <path d="M63.75,48.67 L63.05,37.18 L66.67,31.66 L77.67,27.33 L87.34,29.15 L91.34,38.72 L90.08,50.72 L79.29,55.5 L71.54,55.5 L63.75,48.67 Z M73.73,0.56 L71.83,1.08 L62.74,6.62 L61.17,8.62 L55.35,26.79 L55.18,28.12 L56.56,50.64 L57.81,53.16 L67.81,61.85 L70.21,62.75 L80.08,62.75 L81.55,62.44 L95,56.5 L97.15,53.5 L98.73,38.5 L98.73,38.5 L98.47,36.72 L93.29,24.5 L90.6,22.34 L78,19.97 L76,20.16 L63.57,25.04 L67.7,12.15 L74.7,7.85 L83.82,7.85 L93.27,12.95 L96.79,6.5 L86.52,0.99 L84.79,0.56 L73.73,0.56 Z" id="Shape" fill="currentColor" fill-rule="nonzero"></path>
    <path d="M11.36,46.93 L7.51,31.15 L11.65,14.04 L21.72,8.18 L31.24,10.04 L36.81,16.76 L40.42,29.34 L38.76,45.39 L30.2,55.5 L18.88,55.5 L11.36,46.93 Z M20.41,0.5 L5.3,9.31 L0,31.16 L4.7,50.4 L15.58,62.8 L33.58,62.8 L45.78,48.39 L47.78,28.69 L43.4,13.28 L35.2,3.37 L20.41,0.5 Z" id="Shape" fill="currentColor" fill-rule="nonzero"></path>
  </g>
</svg>