<?xml version="1.0" encoding="UTF-8"?>
<svg width="99px" height="64px" viewBox="0 0 99 64" version="1.1" xmlns="http://www.w3.org/2000/svg" xmlns:xlink="http://www.w3.org/1999/xlink">
  <title>number-05</title>
  <g id="number-05" stroke="none" stroke-width="1" fill="none" fill-rule="evenodd">
    <polygon id="Path" fill="currentColor" fill-rule="nonzero" points="63.41 1.41 59.77 4.87 58.11 36.48 64.41 39.17 76.18 26.64 82.38 26.27 90.19 33.17 91.27 46.21 82.33 56.05 74.79 56.05 66.69 53.5 62.32 48 56.61 52.53 61.67 58.91 63.43 60.12 73.14 63.17 83.94 63.34 86.64 62.15 97.73 49.95 98.67 47.2 98.67 47.19 97.34 31.11 96.13 28.67 86.08 19.79 83.44 18.89 74.29 19.44 71.85 20.59 65.92 26.91 66.88 8.7 93.71 8.7 93.71 1.41"></polygon>
    <path d="M11.36,46.93 L7.51,31.14 L11.65,14.04 L21.72,8.18 L31.24,10.03 L36.81,16.76 L40.42,29.34 L38.76,45.39 L30.2,55.5 L18.88,55.5 L11.36,46.93 Z M20.41,0.5 L5.3,9.3 L0,31.16 L4.7,50.4 L15.58,62.8 L33.58,62.8 L45.78,48.38 L47.78,28.69 L43.4,13.28 L35.2,3.37 L20.41,0.5 Z" id="Shape" fill="currentColor" fill-rule="nonzero"></path>
  </g>
</svg>