<?xml version="1.0" encoding="UTF-8"?>
<svg width="778px" height="790px" viewBox="0 0 778 790" preserveAspectRatio="xMidYMax slice" version="1.1" xmlns="http://www.w3.org/2000/svg" xmlns:xlink="http://www.w3.org/1999/xlink">
  <title>splash-title-01</title>
  <defs>
    <polygon id="path-1" points="11.925 36.5027 2.27373675e-13 172.8037 543.923 220.3907 560.047 36.0947 319.144 15.0187"></polygon>
    <path d="M0.212,163.228 L24.978,165.395 L39.243,2.339 L14.478,0.172 L0.212,163.228 Z M34.182,166.201 L56.537,168.156 L64.743,74.354 L80.206,170.227 L100.37,171.99 L114.635,8.934 L92.062,6.958 L84.411,94.405 L70.803,5.099 L48.448,3.143 L34.182,166.201 Z M118.701,33.14 L139.522,34.961 L127.327,174.349 L151.872,176.497 L164.068,37.11 L184.888,38.931 L186.959,15.261 L120.771,9.471 L118.701,33.14 Z M178.829,178.855 L236.47,183.898 L238.636,159.133 L205.762,156.257 L209.885,109.136 L234.65,111.303 L236.816,86.537 L212.051,84.372 L215.79,41.635 L247.35,44.396 L249.421,20.726 L193.095,15.798 L178.829,178.855 Z M242.826,184.455 L267.591,186.621 L273.957,113.859 L280.312,114.415 C288.203,115.105 289.249,118.288 288.616,125.521 L288.616,125.521 L284.321,174.614 C283.554,183.38 284.62,186.345 285.562,188.193 L285.562,188.193 L310.109,190.341 L310.204,189.244 C309.319,186.739 308.273,183.555 308.849,176.98 L308.849,176.98 L313.853,119.779 C314.811,108.82 309.935,103.977 304.666,101.087 L304.666,101.087 C309.223,99.497 316.039,94.795 317.227,81.206 L317.227,81.206 L319.758,52.277 C321.35,34.086 313.635,26.344 297.198,24.905 L297.198,24.905 L257.091,21.397 L242.826,184.455 Z M282.564,91.203 L275.99,90.628 L279.92,45.7 L286.495,46.275 C293.947,46.926 295.173,50.567 294.56,57.581 L294.56,57.581 L292.566,80.373 C291.973,87.151 289.673,91.259 283.794,91.259 L283.794,91.259 C283.4,91.259 282.991,91.24 282.564,91.203 L282.564,91.203 Z M316.245,190.877 L338.6,192.834 L346.806,99.032 L362.269,194.904 L382.433,196.669 L396.698,33.611 L374.124,31.636 L366.473,119.082 L352.865,29.776 L330.511,27.82 L316.245,190.877 Z M391.637,197.473 L449.277,202.516 L451.444,177.751 L418.569,174.874 L422.691,127.755 L447.457,129.921 L449.624,105.156 L424.858,102.989 L428.597,60.253 L460.157,63.014 L462.228,39.344 L405.903,34.417 L391.637,197.473 Z M464.759,63.416 L485.58,65.238 L473.385,204.625 L497.931,206.773 L510.126,67.385 L530.946,69.208 L533.017,45.538 L466.83,39.746 L464.759,63.416 Z" id="path-3"></path>
    <polygon id="path-5" points="0 0 0 185 416.542 185 760 160.983 760 0"></polygon>
    <path d="M637.664,0.121 C615.224,0.121 607.964,16.18 607.964,32.901 L607.964,32.901 L607.964,132.781 C607.964,149.281 613.464,167.321 638.544,167.321 L638.544,167.321 L644.044,167.321 C668.025,167.321 673.744,149.501 673.744,131.901 L673.744,131.901 L673.744,94.061 L649.325,94.061 L649.325,132.12 C649.325,138.721 647.124,143.121 641.184,143.121 L641.184,143.121 C635.684,143.121 633.264,139.161 633.264,131.901 L633.264,131.901 L633.264,34.661 C633.264,27.401 634.804,23.881 640.964,23.881 L640.964,23.881 C647.124,23.881 649.325,27.62 649.325,34.661 L649.325,34.661 L649.325,63.481 L673.744,63.481 L673.744,34.221 C673.744,18.16 670.664,0.121 643.384,0.121 L643.384,0.121 L637.664,0.121 Z M415.245,0.121 C391.924,0.121 383.344,15.081 383.344,37.741 L383.344,37.741 L383.344,128.821 C383.344,151.701 391.704,167.321 415.464,167.321 L415.464,167.321 L419.645,167.321 C443.624,167.321 451.325,151.701 451.325,128.821 L451.325,128.821 L451.325,37.521 C451.325,15.081 443.624,0.121 419.424,0.121 L419.424,0.121 L415.245,0.121 Z M408.644,130.581 L408.644,36.421 C408.644,28.061 411.064,23.881 417.444,23.881 L417.444,23.881 C423.164,23.881 426.024,27.841 426.024,36.421 L426.024,36.421 L426.024,130.581 C426.024,137.621 424.264,143.121 417.665,143.121 L417.665,143.121 C410.624,143.121 408.644,137.621 408.644,130.581 L408.644,130.581 Z M341.544,0.121 C321.964,0.121 310.964,10.24 310.964,32.021 L310.964,32.021 L310.964,37.301 C310.964,53.581 314.044,64.141 324.604,77.781 L324.604,77.781 L340.444,98.021 C349.464,109.681 350.564,113.861 350.564,125.521 L350.564,125.521 L350.564,129.261 C350.564,139.38 348.365,143.341 342.424,143.341 L342.424,143.341 C336.704,143.341 334.284,139.38 334.284,131.901 L334.284,131.901 L334.284,103.3 L309.644,103.3 L309.644,136.081 C309.644,156.321 320.204,167.101 340.004,167.101 L340.004,167.101 L344.845,167.101 C366.624,167.101 376.964,152.8 376.964,128.821 L376.964,128.821 L376.964,123.541 C376.964,105.061 373.444,96.701 362.225,82.181 L362.225,82.181 L346.384,61.72 C338.025,50.941 336.264,45.88 336.264,36.641 L336.264,36.641 L336.264,33.561 C336.264,25.861 337.584,22.12 343.524,22.12 L343.524,22.12 C349.464,22.12 350.564,26.301 350.564,31.801 L350.564,31.801 L350.564,55.341 L374.544,55.341 L374.544,28.5 C374.544,9.141 366.624,0.121 346.164,0.121 L346.164,0.121 L341.544,0.121 Z M32.224,0.121 C8.904,0.121 0.325,15.081 0.325,37.741 L0.325,37.741 L0.325,128.821 C0.325,151.701 8.684,167.321 32.444,167.321 L32.444,167.321 L36.624,167.321 C60.604,167.321 68.304,151.701 68.304,128.821 L68.304,128.821 L68.304,37.521 C68.304,15.081 60.604,0.121 36.404,0.121 L36.404,0.121 L32.224,0.121 Z M25.625,130.581 L25.625,36.421 C25.625,28.061 28.044,23.881 34.424,23.881 L34.424,23.881 C40.144,23.881 43.005,27.841 43.005,36.421 L43.005,36.421 L43.005,130.581 C43.005,137.621 41.244,143.121 34.644,143.121 L34.644,143.121 C27.605,143.121 25.625,137.621 25.625,130.581 L25.625,130.581 Z M681.664,1.661 L681.664,165.341 L739.524,165.341 L739.524,140.481 L706.525,140.481 L706.525,93.181 L731.384,93.181 L731.384,68.321 L706.525,68.321 L706.525,25.421 L738.204,25.421 L738.204,1.661 L681.664,1.661 Z M534.924,1.661 L534.924,165.341 L559.784,165.341 L559.784,92.301 L566.165,92.301 C574.085,92.301 575.404,95.38 575.404,102.641 L575.404,102.641 L575.404,151.921 C575.404,160.72 576.724,163.581 577.824,165.341 L577.824,165.341 L602.464,165.341 L602.464,164.24 C601.365,161.821 600.044,158.74 600.044,152.141 L600.044,152.141 L600.044,94.721 C600.044,83.721 594.764,79.321 589.264,76.901 L589.264,76.901 C593.664,74.921 600.044,69.64 600.044,56.001 L600.044,56.001 L600.044,26.961 C600.044,8.701 591.684,1.661 575.184,1.661 L575.184,1.661 L534.924,1.661 Z M559.784,23.881 L566.384,23.881 C573.864,23.881 575.404,27.401 575.404,34.44 L575.404,34.44 L575.404,57.321 C575.404,64.581 573.204,68.981 566.384,68.981 L566.384,68.981 L559.784,68.981 L559.784,23.881 Z M500.825,1.661 L500.825,131.241 C500.825,138.501 498.624,142.901 492.684,142.901 L492.684,142.901 C487.184,142.901 484.764,138.281 484.764,131.241 L484.764,131.241 L484.764,1.661 L459.464,1.661 L459.464,129.701 C459.464,153.241 468.484,167.321 490.484,167.321 L490.484,167.321 L494.884,167.321 C516.884,167.321 526.125,152.8 526.125,129.701 L526.125,129.701 L526.125,1.661 L500.825,1.661 Z M257.285,1.661 L257.285,89.441 L235.944,1.661 L213.504,1.661 L213.504,165.341 L235.944,165.341 L235.944,71.18 L259.704,165.341 L279.944,165.341 L279.944,1.661 L257.285,1.661 Z M149.264,1.661 L149.264,165.341 L207.124,165.341 L207.124,140.481 L174.125,140.481 L174.125,93.181 L198.984,93.181 L198.984,68.321 L174.125,68.321 L174.125,25.421 L205.805,25.421 L205.805,1.661 L149.264,1.661 Z M76.884,1.661 L76.884,165.341 L101.744,165.341 L101.744,97.36 L116.264,97.36 C133.204,97.36 141.784,86.801 141.784,67.441 L141.784,67.441 L141.784,28.721 C141.784,9.141 133.864,1.661 116.264,1.661 L116.264,1.661 L76.884,1.661 Z M101.744,23.881 L108.124,23.881 C115.384,23.881 116.705,28.721 116.705,35.101 L116.705,35.101 L116.705,61.941 C116.705,68.541 115.604,73.821 108.124,73.821 L108.124,73.821 L101.744,73.821 L101.744,23.881 Z" id="path-7"></path>
    <polyline id="path-9" points="323.184 211.921 136.7 211.921 0 180.361 41.64 0 45.613 0 355.588 71.563 323.184 211.921 136.7 211.921"></polyline>
    <path d="M0.379,159.576 L24.602,165.168 L40.785,95.072 L65.222,100.713 L70.815,76.49 L46.377,70.848 L56.077,28.834 L86.945,35.961 L92.29,12.809 L37.199,0.091 L0.379,159.576 Z M61.686,173.729 L85.909,179.322 L102.339,108.154 L108.556,109.589 C116.273,111.371 116.866,114.668 115.234,121.742 L115.234,121.742 L104.147,169.759 C102.168,178.333 102.811,181.418 103.487,183.38 L103.487,183.38 L127.495,188.923 L127.743,187.851 C127.215,185.246 126.622,181.947 128.106,175.517 L128.106,175.517 L141.024,119.568 C143.498,108.85 139.343,103.375 134.529,99.78 L134.529,99.78 C139.261,98.84 146.665,95.131 149.733,81.841 L149.733,81.841 L156.266,53.545 C160.374,35.753 153.812,27.013 137.734,23.301 L137.734,23.301 L98.506,14.245 L61.686,173.729 Z M114.016,86.916 L107.585,85.432 L117.731,41.488 L124.162,42.972 C131.45,44.655 132.159,48.43 130.575,55.291 L130.575,55.291 L125.429,77.584 C124.037,83.609 121.558,87.254 116.746,87.254 L116.746,87.254 C115.909,87.254 115.001,87.144 114.016,86.916 L114.016,86.916 Z M161.558,65.83 L141.07,154.575 C135.923,176.869 140.555,193.97 163.706,199.314 L163.706,199.314 L167.778,200.255 C191.144,205.648 202.16,192.162 207.307,169.868 L207.307,169.868 L227.845,80.909 C232.893,59.043 228.756,42.734 205.176,37.291 L205.176,37.291 L201.103,36.35 C197.648,35.553 194.447,35.169 191.485,35.169 L191.485,35.169 C174.967,35.169 165.88,47.108 161.558,65.83 L161.558,65.83 Z M171.293,176.229 C164.434,174.646 163.742,168.841 165.325,161.982 L165.325,161.982 L186.506,70.235 C188.387,62.09 191.686,58.561 197.902,59.996 L197.902,59.996 C203.475,61.283 205.371,65.785 203.441,74.145 L203.441,74.145 L182.26,165.892 C180.867,171.926 178.414,176.493 173.466,176.493 L173.466,176.493 C172.789,176.493 172.067,176.408 171.293,176.229 L171.293,176.229 Z M207.452,207.382 L229.103,212.38 L252.907,109.272 L243.894,215.795 L253.539,218.023 L291.921,118.28 L268.117,221.388 L290.839,226.633 L327.659,67.148 L298.72,60.467 L267.481,141.99 L275.354,55.073 L244.272,47.897 L207.452,207.382 Z" id="path-11"></path>
    <path d="M704.98,2.162 L698.259,63.721 L682.596,3.728 L658.454,5.415 L687.501,99.097 L692.258,167.131 L717.057,165.397 L712.315,97.583 L727.366,0.597 L704.98,2.162 Z M630.363,7.38 L634.937,72.78 L618.038,73.962 L613.465,8.562 L588.664,10.296 L600.083,173.577 L624.882,171.843 L619.864,100.078 L636.763,98.897 L641.781,170.662 L666.58,168.927 L655.163,5.646 L630.363,7.38 Z M516.242,15.36 L517.899,39.062 L538.749,37.605 L548.508,177.183 L573.088,175.464 L563.328,35.886 L584.177,34.428 L582.52,10.725 L516.242,15.36 Z M472.569,18.414 L483.986,181.696 L539.072,177.844 L537.307,152.605 L507.021,154.723 L497.367,16.681 L472.569,18.414 Z M417.922,22.235 L409.368,186.914 L431.534,185.363 L432.678,154.408 L450.674,153.15 L456.114,183.644 L480.036,181.971 L447.33,20.179 L417.922,22.235 Z M435.532,69.081 L446.337,128.973 L433.388,129.878 L435.532,69.081 Z M337.159,27.883 L348.577,191.164 L406.296,187.128 L404.561,162.329 L371.642,164.631 L368.343,117.445 L393.142,115.711 L391.408,90.912 L366.608,92.647 L363.616,49.851 L395.219,47.641 L393.561,23.939 L337.159,27.883 Z M303.142,30.262 L307.716,95.662 L290.817,96.844 L286.244,31.443 L261.444,33.178 L272.862,196.458 L297.661,194.724 L292.643,122.96 L309.542,121.778 L314.559,193.542 L339.36,191.809 L327.942,28.527 L303.142,30.262 Z M184.412,38.564 L175.859,203.242 L198.025,201.692 L199.168,170.737 L217.164,169.478 L222.604,199.973 L246.526,198.301 L213.821,36.508 L184.412,38.564 Z M202.023,85.41 L212.827,145.301 L199.879,146.208 L202.023,85.41 Z M106.833,42.445 L102.664,42.737 C79.401,44.364 71.885,59.885 73.466,82.49 L73.466,82.49 L79.82,173.348 C81.415,196.172 90.845,211.172 114.547,209.514 L114.547,209.514 L118.717,209.222 C142.638,207.549 149.229,191.43 147.634,168.606 L147.634,168.606 L141.264,77.529 C139.784,56.336 131.88,42.313 110.558,42.311 L110.558,42.311 C109.359,42.311 108.119,42.355 106.833,42.445 L106.833,42.445 Z M105.18,173.339 L98.613,79.408 C98.029,71.069 100.152,66.73 106.516,66.285 L106.516,66.285 C112.222,65.886 115.351,69.638 115.95,78.197 L115.95,78.197 L122.518,172.127 C123.01,179.15 121.637,184.759 115.054,185.219 L115.054,185.219 C114.754,185.24 114.462,185.251 114.179,185.251 L114.179,185.251 C114.179,185.251 114.178,185.251 114.177,185.251 L114.177,185.251 C107.831,185.251 105.651,180.062 105.18,173.339 L105.18,173.339 Z M0.282,51.44 L1.939,75.142 L22.788,73.684 L32.548,213.263 L57.129,211.544 L47.368,71.965 L68.218,70.507 L66.56,46.805 L0.282,51.44 Z" id="path-13"></path>
  </defs>
  <g id="splash-title-01" stroke="none" stroke-width="1" fill="none" fill-rule="evenodd">
    <g id="Group-6" transform="translate(110.398500, 569.078700)">
      <mask id="mask-2" fill="white">
        <use xlink:href="#path-1"></use>
      </mask>
      <g id="Fill-1"></g>
      <g id="Group-16" mask="url(#mask-2)">
        <g transform="translate(13.133500, 0.000000)">
          <mask id="mask-4" fill="white">
            <use xlink:href="#path-3"></use>
          </mask>
          <g id="Clip-15" stroke="none" fill="none"></g>
          <polygon id="Fill-14" stroke="none" fill="#202020" fill-rule="evenodd" mask="url(#mask-4)" points="9.9328 -5.2457 538.4338 40.9923 523.2968 214.0113 -5.2042 167.7743"></polygon>
        </g>
      </g>
    </g>
    <g id="Group-4" transform="translate(9.000000, 213.154400)">
      <mask id="mask-6" fill="white">
        <use xlink:href="#path-5"></use>
      </mask>
      <g id="Fill-2"></g>
      <g id="Group-13" mask="url(#mask-6)">
        <g transform="translate(10.532000, 7.924300)">
          <mask id="mask-8" fill="white">
            <use xlink:href="#path-7"></use>
          </mask>
          <g id="Clip-12" stroke="none" fill="none"></g>
          <polygon id="Fill-11" stroke="none" fill="#202020" fill-rule="evenodd" mask="url(#mask-8)" points="-4.676 172.321 744.524 172.321 744.524 -4.879 -4.676 -4.879"></polygon>
        </g>
      </g>
    </g>
    <g id="Group-3" transform="translate(225.532000, 0.000000)">
      <mask id="mask-10" fill="white">
        <use xlink:href="#path-9"></use>
      </mask>
      <g id="Fill-6"></g>
      <g id="Group-9" mask="url(#mask-10)">
        <g transform="translate(14.488500, 12.945000)">
          <mask id="mask-12" fill="white">
            <use xlink:href="#path-11"></use>
          </mask>
          <g id="Clip-8" stroke="none" fill="none"></g>
          <polygon id="Fill-7" stroke="none" fill="#202020" fill-rule="evenodd" mask="url(#mask-12)" points="33.7985 -7.4068 334.0025 61.9012 294.1405 234.5592 -6.0625 165.2522"></polygon>
        </g>
      </g>
    </g>
    <g id="Group-19" transform="translate(30.532000, 385.078700)">
      <mask id="mask-14" fill="white">
        <use xlink:href="#path-13"></use>
      </mask>
      <g id="Clip-18"></g>
      <polygon id="Fill-17" fill="#202020" mask="url(#mask-14)" points="-5.1624 45.2641 731.8976 -6.2759 744.2586 170.4931 7.1986 222.0331"></polygon>
    </g>
  </g>
</svg>